<svg width="48" height="48" viewBox="0 0 48 48" fill="none" xmlns="http://www.w3.org/2000/svg">
<path fill-rule="evenodd" clip-rule="evenodd" d="M33.4074 9.06066C34.5166 9.10667 35.4676 9.18559 36.3065 9.32098C36.2085 9.04571 36.0972 8.78334 35.9707 8.53021C35.0028 6.59308 33.4322 5.02248 31.4951 4.05455C29.3846 3 26.6315 3 21.1253 3L18.9 3C13.3938 3 10.6407 3 8.53022 4.05455C6.59308 5.02248 5.02249 6.59308 4.05456 8.53021C3 10.6407 3 13.3938 3 18.9L3 21.1382V21.1382L3 21.1383C3 26.6444 3 29.3975 4.05456 31.508C5.02249 33.4451 6.59308 35.0157 8.53021 35.9836C8.7787 36.1078 9.03609 36.2173 9.30583 36.314C9.17068 35.4741 9.09199 34.522 9.04616 33.4114C7.86954 32.6814 6.91383 31.6372 6.29092 30.3905C5.96648 29.7412 5.74341 28.8848 5.62379 27.3962C5.50188 25.8792 5.5 23.9318 5.5 21.1382L5.5 18.9C5.5 16.1064 5.50188 14.159 5.62379 12.642C5.74341 11.1534 5.96648 10.297 6.29092 9.64766C7.01687 8.19481 8.19481 7.01686 9.64766 6.29091C10.297 5.96647 11.1534 5.7434 12.642 5.62378C14.159 5.50188 16.1064 5.5 18.9 5.5L21.1253 5.5C23.9189 5.5 25.8663 5.50188 27.3833 5.62378C28.8718 5.7434 29.7283 5.96647 30.3776 6.29091C31.6294 6.91638 32.6771 7.87739 33.4074 9.06066ZM28.9825 13.4964H26.9825C24.141 13.4964 22.1602 13.4984 20.6181 13.6244C19.1052 13.748 18.236 13.9784 17.5776 14.3139C16.1664 15.0329 15.019 16.1803 14.3 17.5915C13.9645 18.2499 13.7341 19.1191 13.6105 20.632C13.4845 22.1741 13.4825 24.1549 13.4825 26.9964V28.9964C13.4825 31.8379 13.4845 33.8187 13.6105 35.3608C13.7341 36.8737 13.9645 37.743 14.3 38.4014C15.019 39.8126 16.1664 40.9599 17.5776 41.679C18.236 42.0144 19.1052 42.2449 20.6181 42.3685C22.1602 42.4945 24.141 42.4964 26.9825 42.4964H28.9825C31.8241 42.4964 33.8048 42.4945 35.3469 42.3685C36.8599 42.2449 37.7291 42.0144 38.3875 41.679C39.7987 40.9599 40.946 39.8126 41.6651 38.4014C42.0006 37.743 42.231 36.8737 42.3546 35.3608C42.4806 33.8187 42.4825 31.8379 42.4825 28.9964V26.9964C42.4825 24.1549 42.4806 22.1741 42.3546 20.632C42.231 19.1191 42.0006 18.2499 41.6651 17.5915C40.946 16.1803 39.7987 15.0329 38.3875 14.3139C37.7291 13.9784 36.8599 13.748 35.3469 13.6244C33.8048 13.4984 31.8241 13.4964 28.9825 13.4964ZM12.0725 16.4565C10.9825 18.5956 10.9825 21.3959 10.9825 26.9964V28.9964C10.9825 34.597 10.9825 37.3972 12.0725 39.5363C13.0312 41.418 14.561 42.9478 16.4426 43.9065C18.5818 44.9964 21.382 44.9964 26.9825 44.9964H28.9825C34.5831 44.9964 37.3833 44.9964 39.5224 43.9065C41.4041 42.9478 42.9339 41.418 43.8926 39.5363C44.9825 37.3972 44.9825 34.597 44.9825 28.9964V26.9964C44.9825 21.3959 44.9825 18.5956 43.8926 16.4565C42.9339 14.5749 41.4041 13.0451 39.5224 12.0864C37.3833 10.9964 34.5831 10.9964 28.9825 10.9964H26.9825C21.382 10.9964 18.5818 10.9964 16.4426 12.0864C14.561 13.0451 13.0312 14.5749 12.0725 16.4565ZM29.3379 20.0834V17.0001H26.8379V20.0834H25.8999C23.3029 20.0834 21 22.0311 21 24.6668C21 27.3024 23.3029 29.2501 25.8999 29.2501H30.2798C31.7145 29.2501 32.6798 30.2872 32.6798 31.3334C32.6798 32.3797 31.7145 33.4168 30.2798 33.4168H22.25V35.9168H26.8379V39.0001H29.3379V35.9168H30.2798C32.8768 35.9168 35.1798 33.9691 35.1798 31.3334C35.1798 28.6978 32.8768 26.7501 30.2798 26.7501H25.8999C24.4653 26.7501 23.5 25.713 23.5 24.6668C23.5 23.6205 24.4653 22.5834 25.8999 22.5834H33.9298V20.0834H29.3379Z" fill="#0572E6"/>
</svg>
