<svg width="48" height="48" viewBox="0 0 48 48" fill="none" xmlns="http://www.w3.org/2000/svg">
<g clip-path="url(#clip0_196_1246)">
<path d="M8.57785 6.85324H36.0068V25.7101H39.4352V3.4248H5.14941V44.5675H24.0007V41.139H8.57785V6.85324Z" fill="#0B1035"/>
<g clip-path="url(#clip1_196_1246)">
<path d="M12.0068 10.2815H32.5784V13.7099H12.0068V10.2815ZM12.0068 17.1388H29.1495V20.5673H12.0068V17.1388ZM12.0068 23.9957H22.2926V27.4242H12.0068V23.9957ZM34.2926 27.4246C29.5587 27.4246 25.7211 31.2623 25.7211 35.9962C25.7211 40.7301 29.5587 44.5677 34.2926 44.5677C39.0265 44.5677 42.8642 40.7301 42.8642 35.9962C42.8642 31.2623 39.0265 27.4246 34.2926 27.4246ZM34.2926 41.1388C31.4567 41.1388 29.15 38.8316 29.15 35.9962C29.15 33.1602 31.4571 30.8535 34.2926 30.8535C37.1286 30.8535 39.4353 33.1607 39.4353 35.9962C39.4353 38.8316 37.1286 41.1388 34.2926 41.1388Z" fill="#0B1035"/>
</g>
<g clip-path="url(#clip2_196_1246)">
<rect x="36" y="44" width="39" height="3" transform="rotate(-90 36 44)" fill="#0B1035"/>
<path d="M25 33.8156V38.5031H29.6875L43.5125 24.6781L38.825 19.9906L25 33.8156ZM47.1375 21.0531C47.625 20.5656 47.625 19.7781 47.1375 19.2906L44.2125 16.3656C43.725 15.8781 42.9375 15.8781 42.45 16.3656L40.1625 18.6531L44.85 23.3406L47.1375 21.0531Z" fill="#0B1035"/>
</g>
<rect x="24" y="41.1401" width="15" height="3.42" fill="#0B1035"/>
</g>
<defs>
<clipPath id="clip0_196_1246">
<rect width="48" height="48" fill="white"/>
</clipPath>
<clipPath id="clip1_196_1246">
<rect width="22.26" height="17.16" fill="white" transform="translate(12 10.26)"/>
</clipPath>
<clipPath id="clip2_196_1246">
<rect width="30" height="30" fill="white" transform="translate(19 12)"/>
</clipPath>
</defs>
</svg>
