<svg width="30" height="29" viewBox="0 0 30 29" fill="none" xmlns="http://www.w3.org/2000/svg">
<path d="M23.2705 2H6.72952C5.47518 2 4.2722 2.49829 3.38525 3.38525C2.49829 4.2722 2 5.47518 2 6.72952V18.541C2 19.7953 2.49829 20.9983 3.38525 21.8852C4.2722 22.7722 5.47518 23.2705 6.72952 23.2705H11.459L15 26.8114L18.541 23.2705H23.2705C24.5248 23.2705 25.7278 22.7722 26.6148 21.8852C27.5017 20.9983 28 19.7953 28 18.541V6.72952C28 5.47518 27.5017 4.2722 26.6148 3.38525C25.7278 2.49829 24.5248 2 23.2705 2Z" stroke="white" stroke-width="2.5" stroke-miterlimit="10"/>
<path d="M15.0005 12.6348C16.3065 12.6348 17.3653 11.5761 17.3653 10.27C17.3653 8.96401 16.3065 7.90527 15.0005 7.90527C13.6945 7.90527 12.6357 8.96401 12.6357 10.27C12.6357 11.5761 13.6945 12.6348 15.0005 12.6348Z" fill="white"/>
<path d="M14.9999 12.6353C15.9391 12.6353 16.8397 13.0083 17.5038 13.6724C18.1678 14.3364 18.5409 15.2371 18.5409 16.1762V17.4143H11.459V16.1762C11.459 15.2371 11.832 14.3364 12.4961 13.6724C13.1602 13.0083 14.0608 12.6353 14.9999 12.6353Z" fill="white"/>
</svg>
