<svg width="136" height="38" viewBox="0 0 136 38" fill="none" xmlns="http://www.w3.org/2000/svg">
<path d="M37.5 0.483276H19V9.48328H28.5V19.4833C28.5 28.9833 18.5 29.4833 18.5 29.4833C9.5 28.9833 9 19.4833 9 19.4833H0V22.9833C5 38.9833 18.5 37.4833 18.5 37.4833C35 36.9833 37.5 21.4833 37.5 21.4833V0.483276Z" fill="white"/>
<rect x="10" y="10.4833" width="9" height="9" fill="#F63858"/>
<mask id="path-3-inside-1_513_3072" fill="white">
<path d="M49.6865 13.3292C49.6865 13.7484 49.6204 14.1312 49.4883 14.4776C49.3561 14.824 49.1624 15.1202 48.9072 15.3663C48.652 15.6124 48.3353 15.8038 47.957 15.9405C47.5788 16.0727 47.139 16.1387 46.6377 16.1387C46.2686 16.1387 45.9131 16.0954 45.5713 16.0089C45.2295 15.9223 44.931 15.8129 44.6758 15.6807V14.0538C44.7897 14.1495 44.9219 14.2383 45.0723 14.3204C45.2272 14.4024 45.3913 14.4753 45.5645 14.5391C45.7376 14.5984 45.9154 14.6462 46.0977 14.6827C46.2799 14.7146 46.46 14.7305 46.6377 14.7305C46.7881 14.7305 46.943 14.7032 47.1025 14.6485C47.2666 14.5938 47.4124 14.5027 47.54 14.3751C47.6676 14.2475 47.7725 14.0811 47.8545 13.876C47.9365 13.6664 47.9775 13.4089 47.9775 13.1036V8.45514H44.7441V7.06744H49.6865V13.3292ZM58.5322 11.4219C58.5322 12.1146 58.4456 12.7436 58.2725 13.3087C58.1038 13.8738 57.8372 14.3568 57.4727 14.7579C57.1126 15.1544 56.6501 15.462 56.085 15.6807C55.5199 15.8949 54.8431 16.002 54.0547 16.002H51.7852V7.06744H54.4307C55.1143 7.06744 55.7113 7.15403 56.2217 7.32721C56.7367 7.49583 57.165 7.75787 57.5068 8.11334C57.8486 8.46881 58.1038 8.91998 58.2725 9.46686C58.4456 10.0137 58.5322 10.6654 58.5322 11.4219ZM56.7275 11.5313C56.7275 11.0482 56.6888 10.6176 56.6113 10.2393C56.5339 9.86106 56.4017 9.54205 56.2148 9.28229C56.0326 9.01796 55.7865 8.81744 55.4766 8.68073C55.1667 8.54401 54.7816 8.47565 54.3213 8.47565H53.4668V14.5938H54.2051C55.0299 14.5938 55.6566 14.3477 56.085 13.8555C56.5133 13.3633 56.7275 12.5886 56.7275 11.5313ZM64.3975 16.002L62.6748 12.7139L60.9795 16.002H58.9492L61.5264 11.4219L59.1201 7.06744H61.0957L62.7158 10.1778L64.2812 7.06744H66.2568L63.8643 11.4219L66.5371 16.002H64.3975Z"/>
</mask>
<path d="M49.6865 13.3292C49.6865 13.7484 49.6204 14.1312 49.4883 14.4776C49.3561 14.824 49.1624 15.1202 48.9072 15.3663C48.652 15.6124 48.3353 15.8038 47.957 15.9405C47.5788 16.0727 47.139 16.1387 46.6377 16.1387C46.2686 16.1387 45.9131 16.0954 45.5713 16.0089C45.2295 15.9223 44.931 15.8129 44.6758 15.6807V14.0538C44.7897 14.1495 44.9219 14.2383 45.0723 14.3204C45.2272 14.4024 45.3913 14.4753 45.5645 14.5391C45.7376 14.5984 45.9154 14.6462 46.0977 14.6827C46.2799 14.7146 46.46 14.7305 46.6377 14.7305C46.7881 14.7305 46.943 14.7032 47.1025 14.6485C47.2666 14.5938 47.4124 14.5027 47.54 14.3751C47.6676 14.2475 47.7725 14.0811 47.8545 13.876C47.9365 13.6664 47.9775 13.4089 47.9775 13.1036V8.45514H44.7441V7.06744H49.6865V13.3292ZM58.5322 11.4219C58.5322 12.1146 58.4456 12.7436 58.2725 13.3087C58.1038 13.8738 57.8372 14.3568 57.4727 14.7579C57.1126 15.1544 56.6501 15.462 56.085 15.6807C55.5199 15.8949 54.8431 16.002 54.0547 16.002H51.7852V7.06744H54.4307C55.1143 7.06744 55.7113 7.15403 56.2217 7.32721C56.7367 7.49583 57.165 7.75787 57.5068 8.11334C57.8486 8.46881 58.1038 8.91998 58.2725 9.46686C58.4456 10.0137 58.5322 10.6654 58.5322 11.4219ZM56.7275 11.5313C56.7275 11.0482 56.6888 10.6176 56.6113 10.2393C56.5339 9.86106 56.4017 9.54205 56.2148 9.28229C56.0326 9.01796 55.7865 8.81744 55.4766 8.68073C55.1667 8.54401 54.7816 8.47565 54.3213 8.47565H53.4668V14.5938H54.2051C55.0299 14.5938 55.6566 14.3477 56.085 13.8555C56.5133 13.3633 56.7275 12.5886 56.7275 11.5313ZM64.3975 16.002L62.6748 12.7139L60.9795 16.002H58.9492L61.5264 11.4219L59.1201 7.06744H61.0957L62.7158 10.1778L64.2812 7.06744H66.2568L63.8643 11.4219L66.5371 16.002H64.3975Z" fill="#F63858"/>
<path d="M47.957 15.9405L48.2869 16.8846L48.297 16.8809L47.957 15.9405ZM44.6758 15.6807H43.6758V16.289L44.2159 16.5687L44.6758 15.6807ZM44.6758 14.0538L45.319 13.2881L43.6758 11.9078V14.0538H44.6758ZM45.0723 14.3204L44.5934 15.1983L44.6044 15.2042L45.0723 14.3204ZM45.5645 14.5391L45.2187 15.4775L45.2297 15.4815L45.2408 15.4853L45.5645 14.5391ZM46.0977 14.6827L45.9015 15.6633L45.9134 15.6656L45.9253 15.6677L46.0977 14.6827ZM47.1025 14.6485L46.7863 13.6998L46.7782 13.7026L47.1025 14.6485ZM47.54 14.3751L48.2471 15.0822L47.54 14.3751ZM47.8545 13.876L48.783 14.2474L48.7857 14.2404L47.8545 13.876ZM47.9775 8.45514H48.9775V7.45514H47.9775V8.45514ZM44.7441 8.45514H43.7441V9.45514H44.7441V8.45514ZM44.7441 7.06744V6.06744H43.7441V7.06744H44.7441ZM49.6865 7.06744H50.6865V6.06744H49.6865V7.06744ZM48.6865 13.3292C48.6865 13.6424 48.6374 13.9025 48.554 14.1211L50.4226 14.8341C50.6035 14.36 50.6865 13.8544 50.6865 13.3292H48.6865ZM48.554 14.1211C48.4718 14.3366 48.3577 14.507 48.2131 14.6464L49.6014 16.0861C49.9672 15.7334 50.2405 15.3113 50.4226 14.8341L48.554 14.1211ZM48.2131 14.6464C48.0719 14.7826 47.8809 14.9047 47.6171 15L48.297 16.8809C48.7897 16.7028 49.2321 16.4422 49.6014 16.0861L48.2131 14.6464ZM47.6272 14.9965C47.3778 15.0836 47.0537 15.1387 46.6377 15.1387V17.1387C47.2243 17.1387 47.7798 17.0617 48.2869 16.8845L47.6272 14.9965ZM46.6377 15.1387C46.3475 15.1387 46.0747 15.1048 45.8169 15.0395L45.3257 16.9782C45.7515 17.0861 46.1896 17.1387 46.6377 17.1387V15.1387ZM45.8169 15.0395C45.5333 14.9676 45.3095 14.8828 45.1356 14.7927L44.2159 16.5687C44.5525 16.743 44.9257 16.8769 45.3257 16.9782L45.8169 15.0395ZM45.6758 15.6807V14.0538H43.6758V15.6807H45.6758ZM44.0326 14.8195C44.2044 14.9638 44.3932 15.0891 44.5934 15.1983L45.5511 13.4425C45.4505 13.3876 45.375 13.3352 45.319 13.2881L44.0326 14.8195ZM44.6044 15.2042C44.8008 15.3081 45.0059 15.399 45.2187 15.4775L45.9102 13.6008C45.7767 13.5516 45.6536 13.4967 45.5402 13.4366L44.6044 15.2042ZM45.2408 15.4853C45.4563 15.559 45.6767 15.6183 45.9015 15.6633L46.2938 13.7021C46.154 13.6742 46.019 13.6377 45.8881 13.593L45.2408 15.4853ZM45.9253 15.6677C46.1622 15.7092 46.3999 15.7305 46.6377 15.7305V13.7305C46.5201 13.7305 46.3977 13.72 46.27 13.6976L45.9253 15.6677ZM46.6377 15.7305C46.9109 15.7305 47.1755 15.6806 47.4269 15.5944L46.7782 13.7026C46.7106 13.7257 46.6652 13.7305 46.6377 13.7305V15.7305ZM47.4188 15.5972C47.7366 15.4912 48.0147 15.3146 48.2471 15.0822L46.8329 13.668C46.8102 13.6907 46.7966 13.6964 46.7863 13.6998L47.4188 15.5972ZM48.2471 15.0822C48.4894 14.8399 48.6616 14.5508 48.783 14.2474L46.926 13.5046C46.8833 13.6114 46.8459 13.655 46.8329 13.668L48.2471 15.0822ZM48.7857 14.2404C48.9262 13.8814 48.9775 13.492 48.9775 13.1036H46.9775C46.9775 13.3259 46.9468 13.4514 46.9232 13.5116L48.7857 14.2404ZM48.9775 13.1036V8.45514H46.9775V13.1036H48.9775ZM47.9775 7.45514H44.7441V9.45514H47.9775V7.45514ZM45.7441 8.45514V7.06744H43.7441V8.45514H45.7441ZM44.7441 8.06744H49.6865V6.06744H44.7441V8.06744ZM48.6865 7.06744V13.3292H50.6865V7.06744H48.6865ZM58.2725 13.3087L57.3163 13.0156L57.3142 13.0227L58.2725 13.3087ZM57.4727 14.7579L56.7327 14.0852L56.7323 14.0856L57.4727 14.7579ZM56.085 15.6807L56.4394 16.6158L56.446 16.6133L56.085 15.6807ZM51.7852 16.002H50.7852V17.002H51.7852V16.002ZM51.7852 7.06744V6.06744H50.7852V7.06744H51.7852ZM56.2217 7.32721L55.9004 8.27424L55.9105 8.27756L56.2217 7.32721ZM58.2725 9.46686L57.3168 9.76151L57.3191 9.76875L58.2725 9.46686ZM56.2148 9.28229L55.3916 9.85002L55.3973 9.85818L55.403 9.86622L56.2148 9.28229ZM55.4766 8.68073L55.0729 9.59564L55.4766 8.68073ZM53.4668 8.47565V7.47565H52.4668V8.47565H53.4668ZM53.4668 14.5938H52.4668V15.5938H53.4668V14.5938ZM57.5322 11.4219C57.5322 12.032 57.4559 12.5602 57.3163 13.0157L59.2286 13.6017C59.4353 12.9269 59.5322 12.1973 59.5322 11.4219H57.5322ZM57.3142 13.0227C57.1846 13.457 56.9878 13.8046 56.7327 14.0852L58.2126 15.4305C58.6867 14.9091 59.0231 14.2905 59.2307 13.5946L57.3142 13.0227ZM56.7323 14.0856C56.4898 14.3527 56.1633 14.5781 55.724 14.7482L56.446 16.6133C57.1368 16.3459 57.7354 15.956 58.213 15.4301L56.7323 14.0856ZM55.7305 14.7456C55.3073 14.9061 54.757 15.002 54.0547 15.002V17.002C54.9292 17.002 55.7324 16.8838 56.4394 16.6158L55.7305 14.7456ZM54.0547 15.002H51.7852V17.002H54.0547V15.002ZM52.7852 16.002V7.06744H50.7852V16.002H52.7852ZM51.7852 8.06744H54.4307V6.06744H51.7852V8.06744ZM54.4307 8.06744C55.0329 8.06744 55.5169 8.14409 55.9004 8.27419L56.543 6.38023C55.9056 6.16397 55.1956 6.06744 54.4307 6.06744V8.06744ZM55.9105 8.27756C56.2856 8.40039 56.5686 8.58032 56.786 8.80645L58.2277 7.42023C57.7615 6.93543 57.1877 6.59127 56.5329 6.37686L55.9105 8.27756ZM56.786 8.80645C57.0033 9.03248 57.1869 9.33999 57.3169 9.7615L59.2281 9.17221C59.0208 8.49997 58.6939 7.90515 58.2277 7.42023L56.786 8.80645ZM57.3191 9.76875C57.4533 10.1925 57.5322 10.7372 57.5322 11.4219H59.5322C59.5322 10.5936 59.438 9.83493 59.2258 9.16497L57.3191 9.76875ZM57.7275 11.5313C57.7275 10.9968 57.6849 10.497 57.591 10.0387L55.6317 10.44C55.6927 10.7382 55.7275 11.0996 55.7275 11.5313H57.7275ZM57.591 10.0387C57.491 9.55025 57.3111 9.09375 57.0266 8.69836L55.403 9.86622C55.4923 9.99036 55.5768 10.1719 55.6317 10.44L57.591 10.0387ZM57.0381 8.71455C56.7449 8.28941 56.3497 7.97292 55.8802 7.76581L55.0729 9.59564C55.2232 9.66196 55.3203 9.74652 55.3916 9.85002L57.0381 8.71455ZM55.8802 7.76581C55.4062 7.55669 54.8736 7.47565 54.3213 7.47565V9.47565C54.6896 9.47565 54.9271 9.53132 55.0729 9.59564L55.8802 7.76581ZM54.3213 7.47565H53.4668V9.47565H54.3213V7.47565ZM52.4668 8.47565V14.5938H54.4668V8.47565H52.4668ZM53.4668 15.5938H54.2051V13.5938H53.4668V15.5938ZM54.2051 15.5938C55.237 15.5938 56.1729 15.2777 56.8393 14.5121L55.3307 13.199C55.1402 13.4178 54.8229 13.5938 54.2051 13.5938V15.5938ZM56.8393 14.5121C57.4988 13.7543 57.7275 12.6894 57.7275 11.5313H55.7275C55.7275 12.4878 55.5279 12.9724 55.3307 13.199L56.8393 14.5121ZM64.3975 16.002L63.5117 16.4661L63.7924 17.002H64.3975V16.002ZM62.6748 12.7139L63.5606 12.2499L62.6677 10.5456L61.786 12.2557L62.6748 12.7139ZM60.9795 16.002V17.002H61.589L61.8683 16.4603L60.9795 16.002ZM58.9492 16.002L58.0777 15.5116L57.2391 17.002H58.9492V16.002ZM61.5264 11.4219L62.3979 11.9123L62.6713 11.4263L62.4016 10.9383L61.5264 11.4219ZM59.1201 7.06744V6.06744H57.425L58.2449 7.5511L59.1201 7.06744ZM61.0957 7.06744L61.9826 6.60548L61.7024 6.06744H61.0957V7.06744ZM62.7158 10.1778L61.8289 10.6398L62.7311 12.3718L63.6091 10.6274L62.7158 10.1778ZM64.2812 7.06744V6.06744H63.665L63.388 6.61788L64.2812 7.06744ZM66.2568 7.06744L67.1333 7.54899L67.9473 6.06744H66.2568V7.06744ZM63.8643 11.4219L62.9878 10.9404L62.7151 11.4368L63.0006 11.926L63.8643 11.4219ZM66.5371 16.002V17.002H68.2785L67.4008 15.498L66.5371 16.002ZM65.2833 15.5379L63.5606 12.2499L61.789 13.178L63.5117 16.4661L65.2833 15.5379ZM61.786 12.2557L60.0907 15.5437L61.8683 16.4603L63.5636 13.1722L61.786 12.2557ZM60.9795 15.002H58.9492V17.002H60.9795V15.002ZM59.8207 16.4924L62.3979 11.9123L60.6549 10.9316L58.0777 15.5116L59.8207 16.4924ZM62.4016 10.9383L59.9954 6.58379L58.2449 7.5511L60.6511 11.9056L62.4016 10.9383ZM59.1201 8.06744H61.0957V6.06744H59.1201V8.06744ZM60.2088 7.52941L61.8289 10.6398L63.6027 9.71583L61.9826 6.60548L60.2088 7.52941ZM63.6091 10.6274L65.1745 7.51701L63.388 6.61788L61.8226 9.72823L63.6091 10.6274ZM64.2812 8.06744H66.2568V6.06744H64.2812V8.06744ZM65.3804 6.58589L62.9878 10.9404L64.7407 11.9035L67.1333 7.54899L65.3804 6.58589ZM63.0006 11.926L65.6734 16.506L67.4008 15.498L64.7279 10.9179L63.0006 11.926ZM66.5371 15.002H64.3975V17.002H66.5371V15.002Z" fill="white" mask="url(#path-3-inside-1_513_3072)"/>
<mask id="path-5-inside-2_513_3072" fill="white">
<path d="M44.1299 29.002V22.6202H46.1904C46.9163 22.6202 47.46 22.7471 47.8213 23.001C48.1859 23.2549 48.3682 23.6391 48.3682 24.1534C48.3682 24.3129 48.3486 24.4691 48.3096 24.6221C48.2738 24.7719 48.2168 24.9102 48.1387 25.0372C48.0605 25.1641 47.9629 25.2764 47.8457 25.3741C47.7285 25.4717 47.5902 25.5482 47.4307 25.6036C47.5902 25.6296 47.7415 25.6817 47.8848 25.7598C48.0312 25.8347 48.1582 25.934 48.2656 26.0577C48.3763 26.1781 48.4626 26.3214 48.5244 26.4874C48.5895 26.6534 48.6221 26.8389 48.6221 27.044C48.6221 27.695 48.404 28.185 47.9678 28.5137C47.5316 28.8393 46.9017 29.002 46.0781 29.002H44.1299ZM47.1182 24.3633C47.1182 24.2429 47.0986 24.1339 47.0596 24.0362C47.0205 23.9385 46.957 23.8555 46.8691 23.7872C46.7845 23.7188 46.6738 23.6667 46.5371 23.6309C46.4036 23.5919 46.2409 23.5723 46.0488 23.5723H45.3213V25.2618H46.0488C46.2441 25.2618 46.4085 25.239 46.542 25.1934C46.6787 25.1446 46.7894 25.0795 46.874 24.9981C46.9619 24.9135 47.0238 24.8174 47.0596 24.71C47.0986 24.6026 47.1182 24.487 47.1182 24.3633ZM46.1611 28.0206C46.3532 28.0206 46.5208 27.9962 46.6641 27.9473C46.8105 27.8985 46.9326 27.8318 47.0303 27.7471C47.1279 27.6592 47.2012 27.5567 47.25 27.4395C47.3021 27.3223 47.3281 27.197 47.3281 27.0635C47.3281 26.7868 47.224 26.5704 47.0156 26.4141C46.8105 26.2579 46.4948 26.1797 46.0684 26.1797H45.3213V28.0206H46.1611ZM53.1484 29.002L52.7969 27.7422H50.5703L50.209 29.002H49.0176L50.9072 22.6202H52.5869L54.4766 29.002H53.1484ZM51.6982 23.7921L50.8584 26.7608H52.5283L51.6982 23.7921ZM58.1094 29.002L56.4004 25.1934L56.0488 24.3731V27.0196V29.002H54.9551V22.6202H56.4297L58.1729 26.4532L58.4805 27.2003V24.3829V22.6202H59.5742V29.002H58.1094ZM63.7637 29.002L61.8447 25.9161V29.002H60.624V22.6202H61.8447V25.5255L63.7539 22.6202H65.2041L63.0361 25.6622L65.3164 29.002H63.7637ZM66.2246 23.6016V22.6202H70.2578V23.6016H68.8516V28.0108H70.2578V29.002H66.2246V28.0108H67.6309V23.6016H66.2246ZM74.6035 29.002L72.8945 25.1934L72.543 24.3731V27.0196V29.002H71.4492V22.6202H72.9238L74.667 26.4532L74.9746 27.2003V24.3829V22.6202H76.0684V29.002H74.6035ZM79.2666 26.3018V25.3106H81.5371V28.7139C81.2441 28.8506 80.9382 28.9516 80.6191 29.0167C80.3001 29.0818 79.9535 29.1143 79.5791 29.1143C79.1364 29.1143 78.7376 29.046 78.3828 28.9092C78.0312 28.7725 77.7318 28.5691 77.4844 28.2989C77.237 28.0287 77.0465 27.6934 76.9131 27.293C76.7829 26.8926 76.7178 26.4288 76.7178 25.9014C76.7178 25.3708 76.7861 24.8956 76.9229 24.4756C77.0628 24.0557 77.2646 23.7009 77.5283 23.4112C77.7952 23.1182 78.1208 22.8952 78.5049 22.7422C78.8923 22.5893 79.3333 22.5128 79.8281 22.5128C80.1211 22.5128 80.4059 22.5388 80.6826 22.5909C80.9626 22.6397 81.2409 22.7064 81.5176 22.7911V23.9776C81.2767 23.8637 81.0098 23.7709 80.7168 23.6993C80.4271 23.6244 80.1341 23.587 79.8379 23.587C79.5384 23.587 79.2731 23.6391 79.042 23.7432C78.8141 23.8474 78.6221 23.9955 78.4658 24.1876C78.3128 24.3796 78.1956 24.6156 78.1143 24.8956C78.0361 25.1755 77.9971 25.4913 77.9971 25.8428C77.9971 26.1814 78.028 26.4874 78.0898 26.7608C78.1517 27.031 78.251 27.2621 78.3877 27.4542C78.5277 27.643 78.7067 27.7878 78.9248 27.8887C79.1429 27.9896 79.4082 28.0401 79.7207 28.0401C79.7956 28.0401 79.8607 28.0385 79.916 28.0352C79.9714 28.0287 80.0234 28.0206 80.0723 28.0108C80.1211 28.001 80.1667 27.9896 80.209 27.9766C80.2546 27.9636 80.3018 27.949 80.3506 27.9327V26.3018H79.2666Z"/>
</mask>
<path d="M44.1299 29.002V22.6202H46.1904C46.9163 22.6202 47.46 22.7471 47.8213 23.001C48.1859 23.2549 48.3682 23.6391 48.3682 24.1534C48.3682 24.3129 48.3486 24.4691 48.3096 24.6221C48.2738 24.7719 48.2168 24.9102 48.1387 25.0372C48.0605 25.1641 47.9629 25.2764 47.8457 25.3741C47.7285 25.4717 47.5902 25.5482 47.4307 25.6036C47.5902 25.6296 47.7415 25.6817 47.8848 25.7598C48.0312 25.8347 48.1582 25.934 48.2656 26.0577C48.3763 26.1781 48.4626 26.3214 48.5244 26.4874C48.5895 26.6534 48.6221 26.8389 48.6221 27.044C48.6221 27.695 48.404 28.185 47.9678 28.5137C47.5316 28.8393 46.9017 29.002 46.0781 29.002H44.1299ZM47.1182 24.3633C47.1182 24.2429 47.0986 24.1339 47.0596 24.0362C47.0205 23.9385 46.957 23.8555 46.8691 23.7872C46.7845 23.7188 46.6738 23.6667 46.5371 23.6309C46.4036 23.5919 46.2409 23.5723 46.0488 23.5723H45.3213V25.2618H46.0488C46.2441 25.2618 46.4085 25.239 46.542 25.1934C46.6787 25.1446 46.7894 25.0795 46.874 24.9981C46.9619 24.9135 47.0238 24.8174 47.0596 24.71C47.0986 24.6026 47.1182 24.487 47.1182 24.3633ZM46.1611 28.0206C46.3532 28.0206 46.5208 27.9962 46.6641 27.9473C46.8105 27.8985 46.9326 27.8318 47.0303 27.7471C47.1279 27.6592 47.2012 27.5567 47.25 27.4395C47.3021 27.3223 47.3281 27.197 47.3281 27.0635C47.3281 26.7868 47.224 26.5704 47.0156 26.4141C46.8105 26.2579 46.4948 26.1797 46.0684 26.1797H45.3213V28.0206H46.1611ZM53.1484 29.002L52.7969 27.7422H50.5703L50.209 29.002H49.0176L50.9072 22.6202H52.5869L54.4766 29.002H53.1484ZM51.6982 23.7921L50.8584 26.7608H52.5283L51.6982 23.7921ZM58.1094 29.002L56.4004 25.1934L56.0488 24.3731V27.0196V29.002H54.9551V22.6202H56.4297L58.1729 26.4532L58.4805 27.2003V24.3829V22.6202H59.5742V29.002H58.1094ZM63.7637 29.002L61.8447 25.9161V29.002H60.624V22.6202H61.8447V25.5255L63.7539 22.6202H65.2041L63.0361 25.6622L65.3164 29.002H63.7637ZM66.2246 23.6016V22.6202H70.2578V23.6016H68.8516V28.0108H70.2578V29.002H66.2246V28.0108H67.6309V23.6016H66.2246ZM74.6035 29.002L72.8945 25.1934L72.543 24.3731V27.0196V29.002H71.4492V22.6202H72.9238L74.667 26.4532L74.9746 27.2003V24.3829V22.6202H76.0684V29.002H74.6035ZM79.2666 26.3018V25.3106H81.5371V28.7139C81.2441 28.8506 80.9382 28.9516 80.6191 29.0167C80.3001 29.0818 79.9535 29.1143 79.5791 29.1143C79.1364 29.1143 78.7376 29.046 78.3828 28.9092C78.0312 28.7725 77.7318 28.5691 77.4844 28.2989C77.237 28.0287 77.0465 27.6934 76.9131 27.293C76.7829 26.8926 76.7178 26.4288 76.7178 25.9014C76.7178 25.3708 76.7861 24.8956 76.9229 24.4756C77.0628 24.0557 77.2646 23.7009 77.5283 23.4112C77.7952 23.1182 78.1208 22.8952 78.5049 22.7422C78.8923 22.5893 79.3333 22.5128 79.8281 22.5128C80.1211 22.5128 80.4059 22.5388 80.6826 22.5909C80.9626 22.6397 81.2409 22.7064 81.5176 22.7911V23.9776C81.2767 23.8637 81.0098 23.7709 80.7168 23.6993C80.4271 23.6244 80.1341 23.587 79.8379 23.587C79.5384 23.587 79.2731 23.6391 79.042 23.7432C78.8141 23.8474 78.6221 23.9955 78.4658 24.1876C78.3128 24.3796 78.1956 24.6156 78.1143 24.8956C78.0361 25.1755 77.9971 25.4913 77.9971 25.8428C77.9971 26.1814 78.028 26.4874 78.0898 26.7608C78.1517 27.031 78.251 27.2621 78.3877 27.4542C78.5277 27.643 78.7067 27.7878 78.9248 27.8887C79.1429 27.9896 79.4082 28.0401 79.7207 28.0401C79.7956 28.0401 79.8607 28.0385 79.916 28.0352C79.9714 28.0287 80.0234 28.0206 80.0723 28.0108C80.1211 28.001 80.1667 27.9896 80.209 27.9766C80.2546 27.9636 80.3018 27.949 80.3506 27.9327V26.3018H79.2666Z" fill="#F63858"/>
<path d="M44.1299 29.002H43.1299V30.002H44.1299V29.002ZM44.1299 22.6202V21.6202H43.1299V22.6202H44.1299ZM47.8213 23.001L47.2463 23.8192L47.2498 23.8216L47.8213 23.001ZM48.3096 24.6221L47.3407 24.3747L47.3388 24.3821L47.337 24.3896L48.3096 24.6221ZM47.4307 25.6036L47.1029 24.6588L47.2695 26.5905L47.4307 25.6036ZM47.8848 25.7598L47.4059 26.6377L47.4177 26.6442L47.4297 26.6503L47.8848 25.7598ZM48.2656 26.0577L47.5106 26.7134L47.5198 26.724L47.5293 26.7343L48.2656 26.0577ZM48.5244 26.4874L47.5873 26.8365L47.5903 26.8445L47.5934 26.8525L48.5244 26.4874ZM47.9678 28.5137L48.5659 29.3152L48.5697 29.3123L47.9678 28.5137ZM46.8691 23.7872L46.2408 24.5651L46.2479 24.5709L46.2552 24.5765L46.8691 23.7872ZM46.5371 23.6309L46.2562 24.5907L46.2699 24.5947L46.2838 24.5983L46.5371 23.6309ZM45.3213 23.5723V22.5723H44.3213V23.5723H45.3213ZM45.3213 25.2618H44.3213V26.2618H45.3213V25.2618ZM46.542 25.1934L46.8652 26.1399L46.8783 26.1352L46.542 25.1934ZM46.874 24.9981L47.5671 25.7189L47.5677 25.7184L46.874 24.9981ZM47.0596 24.71L46.1198 24.3683L46.1152 24.381L46.1109 24.3938L47.0596 24.71ZM46.6641 27.9473L46.3478 26.9986L46.3414 27.0008L46.6641 27.9473ZM47.0303 27.7471L47.6852 28.5028L47.6923 28.4967L47.6992 28.4904L47.0303 27.7471ZM47.25 27.4395L46.3362 27.0334L46.3314 27.0441L46.3269 27.0549L47.25 27.4395ZM47.0156 26.4141L46.4096 27.2096L46.4156 27.2141L47.0156 26.4141ZM45.3213 26.1797V25.1797H44.3213V26.1797H45.3213ZM45.3213 28.0206H44.3213V29.0206H45.3213V28.0206ZM45.1299 29.002V22.6202H43.1299V29.002H45.1299ZM44.1299 23.6202H46.1904V21.6202H44.1299V23.6202ZM46.1904 23.6202C46.831 23.6202 47.1306 23.7379 47.2463 23.8192L48.3962 22.1828C47.7894 21.7564 47.0017 21.6202 46.1904 21.6202V23.6202ZM47.2498 23.8216C47.3006 23.857 47.3682 23.9068 47.3682 24.1534H49.3682C49.3682 23.3713 49.0712 22.6529 48.3928 22.1804L47.2498 23.8216ZM47.3682 24.1534C47.3682 24.2303 47.3589 24.3034 47.3407 24.3747L49.2785 24.8695C49.3384 24.6349 49.3682 24.3955 49.3682 24.1534H47.3682ZM47.337 24.3896C47.325 24.4398 47.3078 24.4792 47.287 24.5131L48.9903 25.5613C49.1258 25.3412 49.2225 25.104 49.2821 24.8547L47.337 24.3896ZM47.287 24.5131C47.267 24.5456 47.2414 24.5759 47.2055 24.6059L48.4859 26.1423C48.6844 25.9769 48.8541 25.7827 48.9903 25.5613L47.287 24.5131ZM47.2055 24.6059C47.1904 24.6185 47.1606 24.6388 47.1029 24.6588L47.7584 26.5483C48.0197 26.4577 48.2667 26.325 48.4859 26.1423L47.2055 24.6059ZM47.2695 26.5905C47.3167 26.5982 47.3607 26.6131 47.4059 26.6377L48.3636 24.8819C48.1223 24.7503 47.8637 24.661 47.5918 24.6166L47.2695 26.5905ZM47.4297 26.6503C47.4625 26.6671 47.4875 26.6868 47.5106 26.7134L49.0207 25.402C48.8289 25.1811 48.6 25.0023 48.3399 24.8694L47.4297 26.6503ZM47.5293 26.7343C47.5455 26.7519 47.5668 26.7814 47.5873 26.8365L49.4615 26.1383C49.3583 25.8613 49.2071 25.6043 49.002 25.3811L47.5293 26.7343ZM47.5934 26.8525C47.6066 26.8861 47.6221 26.9453 47.6221 27.044H49.6221C49.6221 26.7325 49.5724 26.4207 49.4554 26.1223L47.5934 26.8525ZM47.6221 27.044C47.6221 27.4489 47.5018 27.6127 47.3659 27.7152L48.5697 29.3123C49.3062 28.7572 49.6221 27.9412 49.6221 27.044H47.6221ZM47.3697 27.7123C47.1746 27.8579 46.7909 28.002 46.0781 28.002V30.002C47.0125 30.002 47.8885 29.8206 48.5659 29.3152L47.3697 27.7123ZM46.0781 28.002H44.1299V30.002H46.0781V28.002ZM48.1182 24.3633C48.1182 24.134 48.0807 23.8964 47.988 23.6648L46.1311 24.4076C46.1166 24.3713 46.1182 24.3518 46.1182 24.3633H48.1182ZM47.988 23.6648C47.8792 23.3926 47.7025 23.1685 47.4831 22.9978L46.2552 24.5765C46.2359 24.5615 46.212 24.5391 46.1883 24.5081C46.1645 24.477 46.1451 24.4426 46.1311 24.4076L47.988 23.6648ZM47.4975 23.0092C47.275 22.8295 47.0249 22.725 46.7905 22.6635L46.2838 24.5983C46.3017 24.603 46.3047 24.6054 46.2969 24.6017C46.2887 24.5978 46.2678 24.5869 46.2408 24.5651L47.4975 23.0092ZM46.818 22.6712C46.566 22.5974 46.3026 22.5723 46.0488 22.5723V24.5723C46.1792 24.5723 46.2413 24.5863 46.2562 24.5907L46.818 22.6712ZM46.0488 22.5723H45.3213V24.5723H46.0488V22.5723ZM44.3213 23.5723V25.2618H46.3213V23.5723H44.3213ZM45.3213 26.2618H46.0488V24.2618H45.3213V26.2618ZM46.0488 26.2618C46.3149 26.2618 46.5961 26.2316 46.8651 26.1398L46.2188 24.2471C46.2209 24.2464 46.1733 24.2618 46.0488 24.2618V26.2618ZM46.8783 26.1352C47.1176 26.0497 47.3594 25.9187 47.5671 25.7189L46.1809 24.2773C46.2194 24.2403 46.2398 24.2395 46.2057 24.2517L46.8783 26.1352ZM47.5677 25.7184C47.7627 25.5306 47.9174 25.2987 48.0083 25.0262L46.1109 24.3938C46.1196 24.3675 46.1317 24.3428 46.1456 24.3211C46.1594 24.2998 46.1723 24.2855 46.1804 24.2778L47.5677 25.7184ZM47.9994 25.0518C48.0814 24.8261 48.1182 24.594 48.1182 24.3633H46.1182C46.1182 24.3724 46.1175 24.3764 46.1175 24.3761C46.1176 24.3758 46.1181 24.3728 46.1198 24.3683L47.9994 25.0518ZM46.1611 29.0206C46.4348 29.0206 46.716 28.9861 46.9867 28.8938L46.3414 27.0008C46.3257 27.0062 46.2716 27.0206 46.1611 27.0206V29.0206ZM46.9803 28.896C47.2275 28.8136 47.4711 28.6884 47.6852 28.5028L46.3753 26.9914C46.3942 26.9751 46.3936 26.9834 46.3478 26.9986L46.9803 28.896ZM47.6992 28.4904C47.9032 28.3069 48.0652 28.0831 48.1731 27.8241L46.3269 27.0549C46.3312 27.0446 46.3373 27.0335 46.3447 27.0231C46.3521 27.0128 46.3584 27.0064 46.3613 27.0038L47.6992 28.4904ZM48.1638 27.8457C48.275 27.5954 48.3281 27.3311 48.3281 27.0635H46.3281C46.3281 27.0648 46.328 27.0612 46.3295 27.0542C46.331 27.047 46.3334 27.0397 46.3362 27.0334L48.1638 27.8457ZM48.3281 27.0635C48.3281 26.495 48.0936 25.9726 47.6156 25.6141L46.4156 27.2141C46.4025 27.2043 46.3721 27.1755 46.3489 27.1273C46.3267 27.0811 46.3281 27.0525 46.3281 27.0635H48.3281ZM47.6217 25.6187C47.161 25.2677 46.5828 25.1797 46.0684 25.1797V27.1797C46.2241 27.1797 46.3255 27.1944 46.3848 27.2091C46.4435 27.2236 46.4402 27.2329 46.4096 27.2096L47.6217 25.6187ZM46.0684 25.1797H45.3213V27.1797H46.0684V25.1797ZM44.3213 26.1797V28.0206H46.3213V26.1797H44.3213ZM45.3213 29.0206H46.1611V27.0206H45.3213V29.0206ZM53.1484 29.002L52.1852 29.2708L52.3893 30.002H53.1484V29.002ZM52.7969 27.7422L53.7601 27.4734L53.556 26.7422H52.7969V27.7422ZM50.5703 27.7422V26.7422H49.8168L49.6091 27.4665L50.5703 27.7422ZM50.209 29.002V30.002H50.9625L51.1702 29.2777L50.209 29.002ZM49.0176 29.002L48.0587 28.7181L47.6786 30.002H49.0176V29.002ZM50.9072 22.6202V21.6202H50.1604L49.9484 22.3363L50.9072 22.6202ZM52.5869 22.6202L53.5458 22.3363L53.3337 21.6202H52.5869V22.6202ZM54.4766 29.002V30.002H55.8156L55.4354 28.7181L54.4766 29.002ZM51.6982 23.7921L52.6613 23.5228L51.7039 20.0985L50.736 23.5198L51.6982 23.7921ZM50.8584 26.7608L49.8962 26.4886L49.5363 27.7608H50.8584V26.7608ZM52.5283 26.7608V27.7608H53.8463L53.4914 26.4915L52.5283 26.7608ZM54.1116 28.7332L53.7601 27.4734L51.8337 28.011L52.1852 29.2708L54.1116 28.7332ZM52.7969 26.7422H50.5703V28.7422H52.7969V26.7422ZM49.6091 27.4665L49.2477 28.7263L51.1702 29.2777L51.5316 28.018L49.6091 27.4665ZM50.209 28.002H49.0176V30.002H50.209V28.002ZM49.9764 29.2859L51.8661 22.9041L49.9484 22.3363L48.0587 28.7181L49.9764 29.2859ZM50.9072 23.6202H52.5869V21.6202H50.9072V23.6202ZM51.6281 22.9041L53.5177 29.2859L55.4354 28.7181L53.5458 22.3363L51.6281 22.9041ZM54.4766 28.002H53.1484V30.002H54.4766V28.002ZM50.736 23.5198L49.8962 26.4886L51.8206 27.033L52.6605 24.0643L50.736 23.5198ZM50.8584 27.7608H52.5283V25.7608H50.8584V27.7608ZM53.4914 26.4915L52.6613 23.5228L50.7352 24.0613L51.5653 27.0301L53.4914 26.4915ZM58.1094 29.002L57.197 29.4114L57.462 30.002H58.1094V29.002ZM56.4004 25.1934L55.4812 25.5873L55.4846 25.5951L55.488 25.6028L56.4004 25.1934ZM56.0488 24.3731L56.968 23.9792L55.0488 24.3731H56.0488ZM56.0488 29.002V30.002H57.0488V29.002H56.0488ZM54.9551 29.002H53.9551V30.002H54.9551V29.002ZM54.9551 22.6202V21.6202H53.9551V22.6202H54.9551ZM56.4297 22.6202L57.34 22.2062L57.0735 21.6202H56.4297V22.6202ZM58.1729 26.4532L59.0975 26.0724L59.0906 26.0557L59.0831 26.0392L58.1729 26.4532ZM58.4805 27.2003L57.5558 27.581L59.4805 27.2003H58.4805ZM58.4805 22.6202V21.6202H57.4805V22.6202H58.4805ZM59.5742 22.6202H60.5742V21.6202H59.5742V22.6202ZM59.5742 29.002V30.002H60.5742V29.002H59.5742ZM59.0217 28.5926L57.3127 24.784L55.488 25.6028L57.197 29.4114L59.0217 28.5926ZM57.3195 24.7995L56.968 23.9792L55.1297 24.767L55.4812 25.5873L57.3195 24.7995ZM55.0488 24.3731V27.0196H57.0488V24.3731H55.0488ZM55.0488 27.0196V29.002H57.0488V27.0196H55.0488ZM56.0488 28.002H54.9551V30.002H56.0488V28.002ZM55.9551 29.002V22.6202H53.9551V29.002H55.9551ZM54.9551 23.6202H56.4297V21.6202H54.9551V23.6202ZM55.5194 23.0342L57.2626 26.8672L59.0831 26.0392L57.34 22.2062L55.5194 23.0342ZM57.2482 26.8339L57.5558 27.581L59.4051 26.8195L59.0975 26.0724L57.2482 26.8339ZM59.4805 27.2003V24.3829H57.4805V27.2003H59.4805ZM59.4805 24.3829V22.6202H57.4805V24.3829H59.4805ZM58.4805 23.6202H59.5742V21.6202H58.4805V23.6202ZM58.5742 22.6202V29.002H60.5742V22.6202H58.5742ZM59.5742 28.002H58.1094V30.002H59.5742V28.002ZM63.7637 29.002L62.9145 29.5301L63.2079 30.002H63.7637V29.002ZM61.8447 25.9161L62.6939 25.388L60.8447 22.4142V25.9161H61.8447ZM61.8447 29.002V30.002H62.8447V29.002H61.8447ZM60.624 29.002H59.624V30.002H60.624V29.002ZM60.624 22.6202V21.6202H59.624V22.6202H60.624ZM61.8447 22.6202H62.8447V21.6202H61.8447V22.6202ZM61.8447 25.5255H60.8447V28.8681L62.6804 26.0746L61.8447 25.5255ZM63.7539 22.6202V21.6202H63.2145L62.9182 22.071L63.7539 22.6202ZM65.2041 22.6202L66.0185 23.2006L67.1448 21.6202H65.2041V22.6202ZM63.0361 25.6622L62.2218 25.0818L61.8169 25.6499L62.2103 26.226L63.0361 25.6622ZM65.3164 29.002V30.002H67.21L66.1423 28.4382L65.3164 29.002ZM64.6129 28.4739L62.6939 25.388L60.9955 26.4441L62.9145 29.5301L64.6129 28.4739ZM60.8447 25.9161V29.002H62.8447V25.9161H60.8447ZM61.8447 28.002H60.624V30.002H61.8447V28.002ZM61.624 29.002V22.6202H59.624V29.002H61.624ZM60.624 23.6202H61.8447V21.6202H60.624V23.6202ZM60.8447 22.6202V25.5255H62.8447V22.6202H60.8447ZM62.6804 26.0746L64.5896 23.1694L62.9182 22.071L61.009 24.9763L62.6804 26.0746ZM63.7539 23.6202H65.2041V21.6202H63.7539V23.6202ZM64.3897 22.0398L62.2218 25.0818L63.8505 26.2425L66.0185 23.2006L64.3897 22.0398ZM62.2103 26.226L64.4905 29.5659L66.1423 28.4382L63.862 25.0983L62.2103 26.226ZM65.3164 28.002H63.7637V30.002H65.3164V28.002ZM66.2246 23.6016H65.2246V24.6016H66.2246V23.6016ZM66.2246 22.6202V21.6202H65.2246V22.6202H66.2246ZM70.2578 22.6202H71.2578V21.6202H70.2578V22.6202ZM70.2578 23.6016V24.6016H71.2578V23.6016H70.2578ZM68.8516 23.6016V22.6016H67.8516V23.6016H68.8516ZM68.8516 28.0108H67.8516V29.0108H68.8516V28.0108ZM70.2578 28.0108H71.2578V27.0108H70.2578V28.0108ZM70.2578 29.002V30.002H71.2578V29.002H70.2578ZM66.2246 29.002H65.2246V30.002H66.2246V29.002ZM66.2246 28.0108V27.0108H65.2246V28.0108H66.2246ZM67.6309 28.0108V29.0108H68.6309V28.0108H67.6309ZM67.6309 23.6016H68.6309V22.6016H67.6309V23.6016ZM67.2246 23.6016V22.6202H65.2246V23.6016H67.2246ZM66.2246 23.6202H70.2578V21.6202H66.2246V23.6202ZM69.2578 22.6202V23.6016H71.2578V22.6202H69.2578ZM70.2578 22.6016H68.8516V24.6016H70.2578V22.6016ZM67.8516 23.6016V28.0108H69.8516V23.6016H67.8516ZM68.8516 29.0108H70.2578V27.0108H68.8516V29.0108ZM69.2578 28.0108V29.002H71.2578V28.0108H69.2578ZM70.2578 28.002H66.2246V30.002H70.2578V28.002ZM67.2246 29.002V28.0108H65.2246V29.002H67.2246ZM66.2246 29.0108H67.6309V27.0108H66.2246V29.0108ZM68.6309 28.0108V23.6016H66.6309V28.0108H68.6309ZM67.6309 22.6016H66.2246V24.6016H67.6309V22.6016ZM74.6035 29.002L73.6912 29.4114L73.9562 30.002H74.6035V29.002ZM72.8945 25.1934L71.9754 25.5873L71.9787 25.5951L71.9822 25.6028L72.8945 25.1934ZM72.543 24.3731L73.4621 23.9792L71.543 24.3731H72.543ZM72.543 29.002V30.002H73.543V29.002H72.543ZM71.4492 29.002H70.4492V30.002H71.4492V29.002ZM71.4492 22.6202V21.6202H70.4492V22.6202H71.4492ZM72.9238 22.6202L73.8341 22.2062L73.5676 21.6202H72.9238V22.6202ZM74.667 26.4532L75.5917 26.0724L75.5848 26.0557L75.5773 26.0392L74.667 26.4532ZM74.9746 27.2003L74.0499 27.581L75.9746 27.2003H74.9746ZM74.9746 22.6202V21.6202H73.9746V22.6202H74.9746ZM76.0684 22.6202H77.0684V21.6202H76.0684V22.6202ZM76.0684 29.002V30.002H77.0684V29.002H76.0684ZM75.5159 28.5926L73.8069 24.784L71.9822 25.6028L73.6912 29.4114L75.5159 28.5926ZM73.8137 24.7995L73.4621 23.9792L71.6238 24.767L71.9754 25.5873L73.8137 24.7995ZM71.543 24.3731V27.0196H73.543V24.3731H71.543ZM71.543 27.0196V29.002H73.543V27.0196H71.543ZM72.543 28.002H71.4492V30.002H72.543V28.002ZM72.4492 29.002V22.6202H70.4492V29.002H72.4492ZM71.4492 23.6202H72.9238V21.6202H71.4492V23.6202ZM72.0135 23.0342L73.7567 26.8672L75.5773 26.0392L73.8341 22.2062L72.0135 23.0342ZM73.7423 26.8339L74.0499 27.581L75.8993 26.8195L75.5917 26.0724L73.7423 26.8339ZM75.9746 27.2003V24.3829H73.9746V27.2003H75.9746ZM75.9746 24.3829V22.6202H73.9746V24.3829H75.9746ZM74.9746 23.6202H76.0684V21.6202H74.9746V23.6202ZM75.0684 22.6202V29.002H77.0684V22.6202H75.0684ZM76.0684 28.002H74.6035V30.002H76.0684V28.002ZM79.2666 26.3018H78.2666V27.3018H79.2666V26.3018ZM79.2666 25.3106V24.3106H78.2666V25.3106H79.2666ZM81.5371 25.3106H82.5371V24.3106H81.5371V25.3106ZM81.5371 28.7139L81.96 29.6201L82.5371 29.3508V28.7139H81.5371ZM78.3828 28.9092L78.0204 29.8412L78.0233 29.8424L78.3828 28.9092ZM76.9131 27.293L75.9621 27.6023L75.9644 27.6093L76.9131 27.293ZM76.9229 24.4756L75.9741 24.1594L75.972 24.1661L76.9229 24.4756ZM77.5283 23.4112L76.7891 22.7377L76.7888 22.7381L77.5283 23.4112ZM78.5049 22.7422L78.1375 21.8122L78.1348 21.8132L78.5049 22.7422ZM80.6826 22.5909L80.4976 23.5737L80.5108 23.576L80.6826 22.5909ZM81.5176 22.7911H82.5176V22.0512L81.8101 21.8348L81.5176 22.7911ZM81.5176 23.9776L81.09 24.8816L82.5176 25.5568V23.9776H81.5176ZM80.7168 23.6993L80.4666 24.6676L80.4793 24.6707L80.7168 23.6993ZM79.042 23.7432L78.6311 22.8315L78.6262 22.8338L79.042 23.7432ZM78.4658 24.1876L77.6901 23.5564L77.6837 23.5645L78.4658 24.1876ZM78.1143 24.8956L77.154 24.6164L77.1511 24.6268L78.1143 24.8956ZM78.0898 26.7608L77.1145 26.9814L77.1151 26.9839L78.0898 26.7608ZM78.3877 27.4542L77.573 28.0341L77.5786 28.042L77.5844 28.0497L78.3877 27.4542ZM78.9248 27.8887L79.3447 26.9812L78.9248 27.8887ZM79.916 28.0352L79.9747 29.0335L80.0039 29.0318L80.0329 29.0284L79.916 28.0352ZM80.209 27.9766L79.9343 27.0151L79.9246 27.0179L79.9149 27.0208L80.209 27.9766ZM80.3506 27.9327L80.6668 28.8814L81.3506 28.6534V27.9327H80.3506ZM80.3506 26.3018H81.3506V25.3018H80.3506V26.3018ZM80.2666 26.3018V25.3106H78.2666V26.3018H80.2666ZM79.2666 26.3106H81.5371V24.3106H79.2666V26.3106ZM80.5371 25.3106V28.7139H82.5371V25.3106H80.5371ZM81.1142 27.8077C80.8929 27.911 80.6618 27.9873 80.4192 28.0369L80.8191 29.9965C81.2145 29.9158 81.5954 29.7903 81.96 29.6201L81.1142 27.8077ZM80.4192 28.0369C80.1749 28.0867 79.896 28.1143 79.5791 28.1143V30.1143C80.0109 30.1143 80.4254 30.0768 80.8191 29.9965L80.4192 28.0369ZM79.5791 28.1143C79.2395 28.1143 78.9653 28.062 78.7424 27.9761L78.0233 29.8424C78.51 30.0299 79.0333 30.1143 79.5791 30.1143V28.1143ZM78.7453 27.9772C78.5324 27.8944 78.3625 27.7771 78.2219 27.6236L76.7469 28.9742C77.101 29.361 77.5301 29.6506 78.0204 29.8412L78.7453 27.9772ZM78.2219 27.6236C78.0827 27.4715 77.9576 27.2641 77.8618 26.9768L75.9644 27.6093C76.1355 28.1227 76.3913 28.5859 76.7469 28.9742L78.2219 27.6236ZM77.8641 26.9838C77.7733 26.7048 77.7178 26.3491 77.7178 25.9014H75.7178C75.7178 26.5085 75.7924 27.0805 75.9621 27.6023L77.8641 26.9838ZM77.7178 25.9014C77.7178 25.4555 77.7753 25.0874 77.8737 24.7852L75.972 24.1661C75.7969 24.7037 75.7178 25.2862 75.7178 25.9014H77.7178ZM77.8715 24.7919C77.9732 24.487 78.1095 24.2583 78.2679 24.0843L76.7888 22.7381C76.4198 23.1435 76.1525 23.6244 75.9742 24.1594L77.8715 24.7919ZM78.2675 24.0847C78.4279 23.9086 78.6254 23.7707 78.8749 23.6713L78.1348 21.8132C77.6162 22.0198 77.1626 22.3278 76.7891 22.7377L78.2675 24.0847ZM78.8722 23.6723C79.1229 23.5733 79.4359 23.5128 79.8281 23.5128V21.5128C79.2307 21.5128 78.6616 21.6052 78.1375 21.8122L78.8722 23.6723ZM79.8281 23.5128C80.0615 23.5128 80.2843 23.5335 80.4976 23.5736L80.8676 21.6081C80.5275 21.5441 80.1806 21.5128 79.8281 21.5128V23.5128ZM80.5108 23.576C80.7492 23.6176 80.9873 23.6746 81.2251 23.7473L81.8101 21.8348C81.4945 21.7383 81.1759 21.6618 80.8544 21.6058L80.5108 23.576ZM80.5176 22.7911V23.9776H82.5176V22.7911H80.5176ZM81.9451 23.0736C81.636 22.9274 81.3043 22.8134 80.9543 22.7279L80.4793 24.6707C80.7152 24.7283 80.9174 24.8 81.09 24.8816L81.9451 23.0736ZM80.967 22.7311C80.5964 22.6353 80.2194 22.587 79.8379 22.587V24.587C80.0488 24.587 80.2578 24.6135 80.4666 24.6675L80.967 22.7311ZM79.8379 22.587C79.4221 22.587 79.0127 22.6596 78.6311 22.8315L79.4529 24.6549C79.5336 24.6185 79.6547 24.587 79.8379 24.587V22.587ZM78.6262 22.8338C78.2603 23.001 77.9445 23.2437 77.6901 23.5565L79.2415 24.8186C79.2996 24.7473 79.3679 24.6938 79.4578 24.6527L78.6262 22.8338ZM77.6837 23.5645C77.4358 23.8757 77.2651 24.2343 77.154 24.6164L79.0745 25.1747C79.1262 24.9969 79.1899 24.8836 79.248 24.8106L77.6837 23.5645ZM77.1511 24.6268C77.044 25.0103 76.9971 25.4187 76.9971 25.8428H78.9971C78.9971 25.5638 79.0282 25.3408 79.0775 25.1644L77.1511 24.6268ZM76.9971 25.8428C76.9971 26.2408 77.0333 26.6225 77.1145 26.9814L79.0652 26.5402C79.0227 26.3522 78.9971 26.1219 78.9971 25.8428H76.9971ZM77.1151 26.9839C77.2012 27.3602 77.3478 27.7177 77.573 28.0341L79.2024 26.8742C79.1542 26.8065 79.1022 26.7017 79.0646 26.5377L77.1151 26.9839ZM77.5844 28.0497C77.8263 28.3761 78.1385 28.6268 78.5049 28.7963L79.3447 26.9812C79.275 26.9489 79.229 26.9098 79.191 26.8586L77.5844 28.0497ZM78.5049 28.7963C78.8879 28.9735 79.305 29.0401 79.7207 29.0401V27.0401C79.5114 27.0401 79.3979 27.0058 79.3447 26.9812L78.5049 28.7963ZM79.7207 29.0401C79.8089 29.0401 79.8944 29.0382 79.9747 29.0335L79.8573 27.0369C79.8269 27.0387 79.7823 27.0401 79.7207 27.0401V29.0401ZM80.0329 29.0284C80.1117 29.0191 80.1904 29.007 80.2684 28.9914L79.8761 27.0302C79.8564 27.0342 79.831 27.0383 79.7992 27.0421L80.0329 29.0284ZM80.2684 28.9914C80.3463 28.9758 80.4249 28.9565 80.5031 28.9324L79.9149 27.0208C79.9085 27.0228 79.8959 27.0263 79.8761 27.0302L80.2684 28.9914ZM80.4837 28.9381C80.5443 28.9208 80.6054 28.9018 80.6668 28.8814L80.0344 26.984C79.9981 26.9961 79.9648 27.0064 79.9343 27.0151L80.4837 28.9381ZM81.3506 27.9327V26.3018H79.3506V27.9327H81.3506ZM80.3506 25.3018H79.2666V27.3018H80.3506V25.3018Z" fill="white" mask="url(#path-5-inside-2_513_3072)"/>
<path d="M88.5 0.324524V37.6795" stroke="white"/>
<path d="M126.438 31.274C128.862 31.2648 131.184 30.2982 132.899 28.5848C134.613 26.8714 135.581 24.5499 135.592 22.126C135.234 19.959 134.476 15.95 128.851 15.95C122.701 15.95 120.66 24.55 115.651 30.087C115.251 33.24 112.267 36.06 108.54 36.535C109.454 37.489 111.482 38.004 113.906 38.004C118.34 38.004 123.711 36.67 126.52 33.896C125.722 33.9591 124.919 33.8601 124.16 33.605C123.401 33.3498 122.702 32.9438 122.104 32.4113C121.506 31.8788 121.022 31.2308 120.681 30.5064C120.34 29.782 120.149 28.9961 120.12 28.196C120.854 29.1727 121.81 29.9611 122.908 30.4962C124.007 31.0313 125.216 31.2979 126.438 31.274Z" fill="#00ADE2"/>
<path d="M135.584 21.757C135.472 15.99 132.726 11.12 128.498 7.236C125.238 4.34194 121.506 2.0281 117.464 0.395C117.142 0.261667 116.818 0.13 116.493 0C111.566 5.905 94.5 10.312 94.5 22.687C94.5217 25.0854 95.2487 27.4245 96.5906 29.4126C97.9325 31.4006 99.8298 32.9498 102.046 33.867C104.546 34.8484 107.314 34.9058 109.853 34.029C112.099 33.2453 114.099 31.8844 115.653 30.083C120.663 24.543 122.704 15.946 128.853 15.946C134.479 15.946 135.237 19.955 135.594 22.122C135.593 22.12 135.591 21.969 135.584 21.757Z" fill="#006CA9"/>
</svg>
