<svg width="38" height="39" viewBox="0 0 38 39" fill="none" xmlns="http://www.w3.org/2000/svg">
<g id="Group">
<path id="Vector" d="M18.506 0.074707C20.7337 0.074707 22.8689 0.479137 24.8468 1.21774L22.6357 3.48483C19.2896 2.55111 15.7366 2.77816 12.5292 4.13068C9.32186 5.4832 6.63983 7.88538 4.90022 10.9637C3.16061 14.042 2.4609 17.624 2.90991 21.1525C3.35891 24.6811 4.93146 27.9585 7.38302 30.4752C9.83459 32.9918 13.0278 34.6067 16.466 35.0687C19.9043 35.5306 23.395 34.8138 26.3953 33.0296C29.3955 31.2454 31.7372 28.4939 33.0563 25.2029C34.3753 21.9119 34.5978 18.2658 33.689 14.8317L35.8982 12.5646C36.6371 14.6481 37.0141 16.8486 37.012 19.0658C37.012 29.5544 28.7267 38.057 18.506 38.057C8.28534 38.057 0 29.5544 0 19.0658C0 8.57723 8.28534 0.074707 18.506 0.074707ZM18.506 7.67344C19.4435 7.67299 20.3772 7.79421 21.2851 8.0342V11.0095C19.5047 10.3631 17.563 10.3571 15.7788 10.9924C13.9947 11.6276 12.4739 12.8665 11.4663 14.5056C10.4586 16.1447 10.0239 18.0867 10.2335 20.0127C10.4431 21.9388 11.2845 23.7345 12.6196 25.1052C13.9548 26.4758 15.7043 27.34 17.5811 27.5557C19.4579 27.7715 21.3504 27.3261 22.948 26.2926C24.5456 25.2592 25.7534 23.699 26.3731 21.8683C26.9928 20.0376 26.9876 18.045 26.3584 16.2177H29.2577C29.8365 18.5183 29.7 20.9469 28.8671 23.1639C28.0343 25.3808 26.5468 27.275 24.613 28.5815C22.6791 29.8879 20.3956 30.5412 18.0821 30.4498C15.7685 30.3585 13.5406 29.5271 11.7103 28.072C9.87997 26.617 8.53876 24.6111 7.87436 22.335C7.20996 20.059 7.25563 17.6267 8.00497 15.3786C8.75432 13.1306 10.1698 11.1792 12.0534 9.79755C13.937 8.41593 16.1944 7.67325 18.5097 7.67344H18.506ZM22.2065 19.0658C22.2062 19.882 21.9497 20.6764 21.475 21.3313C21.0003 21.9861 20.3326 22.4666 19.5709 22.7015C18.8092 22.9363 17.994 22.9131 17.2462 22.6352C16.4984 22.3573 15.8577 21.8396 15.4191 21.1587C14.9805 20.4779 14.7673 19.6701 14.8112 18.8552C14.8551 18.0402 15.1536 17.2615 15.6626 16.6343C16.1716 16.0072 16.864 15.565 17.6371 15.3733C18.4102 15.1817 19.2229 15.2507 19.9548 15.5703L23.1371 12.3044L23.1353 6.24939C23.1356 5.87183 23.282 5.50986 23.5423 5.24306L28.1679 0.496226C28.362 0.297321 28.6091 0.161895 28.8782 0.107051C29.1472 0.0522075 29.426 0.0804063 29.6794 0.188086C29.9328 0.295766 30.1495 0.478096 30.302 0.71205C30.4545 0.946004 30.536 1.22109 30.5362 1.50255V6.72407H35.6244C35.8986 6.72432 36.1667 6.80797 36.3947 6.96446C36.6227 7.12096 36.8003 7.34327 36.9053 7.60333C37.0102 7.86339 37.0377 8.14952 36.9842 8.42559C36.9308 8.70167 36.7988 8.9553 36.605 9.15445L31.9794 13.9013C31.7194 14.1684 31.3667 14.3187 30.9988 14.319H25.0965L21.9141 17.5848C22.1029 18.0405 22.2065 18.5399 22.2065 19.0658ZM30.4234 11.4709L32.2736 9.57217H29.1467C28.7787 9.57217 28.4257 9.42214 28.1655 9.15508C27.9052 8.88801 27.759 8.5258 27.759 8.14812V4.93926L25.9106 6.83799V11.3589C25.9498 11.3939 25.9869 11.4313 26.0217 11.4709H30.4252H30.4234Z" fill="#1C2777"/>
</g>
</svg>
