<svg width="55" height="51" viewBox="0 0 55 51" fill="none" xmlns="http://www.w3.org/2000/svg">
<path d="M21.8632 18.7458C22.9858 17.4848 24.559 16.8446 26.5818 16.8241V14.7617H28.017V16.7915C30.0208 16.9358 31.559 17.5407 32.629 18.6066C33.7021 19.6739 34.2625 21.082 34.3142 22.8342H31.6716C31.6026 22.0491 31.3934 21.3725 31.0531 20.8049C30.4187 19.7619 29.406 19.2143 28.0184 19.1621V26.7084C30.3534 27.3794 31.9393 28.0094 32.7742 28.5989C34.1323 29.5703 34.812 31.0063 34.812 32.9057C34.812 35.6535 33.944 37.606 32.1997 38.7627C31.235 39.4043 29.8388 39.8267 28.0179 40.0334V43.0415H26.5827V40.0334C23.6533 39.8378 21.6654 38.7757 20.6176 36.8414C20.0441 35.7988 19.7573 34.3879 19.7573 32.6119H22.4295C22.5103 34.0266 22.7285 35.0594 23.0833 35.7113C23.7118 36.8777 24.8775 37.5352 26.5818 37.6796V29.235C24.3965 28.8099 22.783 28.103 21.7425 27.1107C20.7007 26.1189 20.1789 24.7452 20.1789 22.9883C20.1793 21.4205 20.7402 20.004 21.8632 18.7458ZM23.8942 25.2076C24.5603 25.786 25.4556 26.1883 26.5822 26.416V19.1332C25.2523 19.1854 24.3067 19.5989 23.7431 20.3733C23.1791 21.1476 22.8969 21.9593 22.8969 22.8063C22.8969 23.826 23.2299 24.627 23.8942 25.2076ZM31.5808 35.8207C31.9211 35.2023 32.0931 34.4824 32.0931 33.6666C32.0931 32.3749 31.6298 31.3933 30.7032 30.7223C30.171 30.3312 29.2739 29.9572 28.0161 29.6089V37.7601C29.7377 37.6749 30.9269 37.0291 31.5808 35.8207Z" fill="white"/>
<path fill-rule="evenodd" clip-rule="evenodd" d="M27.2962 0L54.5928 21.0089L53.2929 25.0106H51.1263V50.577H3.4662V25.0106H1.29982L0 21.0089L27.2962 0ZM7.79895 20.5643V46.1306H46.7935V20.5643L27.2962 5.55791L7.79895 20.5643Z" fill="white"/>
</svg>
