<svg width="30" height="31" viewBox="0 0 30 31" fill="none" xmlns="http://www.w3.org/2000/svg">
<path d="M14.8052 19.8448C17.3604 19.8448 19.4317 17.7294 19.4317 15.1198C19.4317 12.5103 17.3604 10.3949 14.8052 10.3949C12.2501 10.3949 10.1787 12.5103 10.1787 15.1198C10.1787 17.7294 12.2501 19.8448 14.8052 19.8448Z" stroke="#0B1035" stroke-opacity="0.75" stroke-width="2" stroke-miterlimit="10"/>
<path d="M19.8942 4.25244H9.71587C6.64969 4.25244 4.16406 6.79096 4.16406 9.92238V20.3173C4.16406 23.4487 6.64969 25.9872 9.71587 25.9872H19.8942C22.9604 25.9872 25.446 23.4487 25.446 20.3173V9.92238C25.446 6.79096 22.9604 4.25244 19.8942 4.25244Z" stroke="#0B1035" stroke-opacity="0.75" stroke-width="2" stroke-linecap="round" stroke-linejoin="round"/>
<path d="M20.8196 10.3949C21.5861 10.3949 22.2075 9.76028 22.2075 8.97742C22.2075 8.19457 21.5861 7.55994 20.8196 7.55994C20.053 7.55994 19.4316 8.19457 19.4316 8.97742C19.4316 9.76028 20.053 10.3949 20.8196 10.3949Z" fill="black"/>
</svg>
