<svg width="58" height="91" viewBox="0 0 58 91" fill="none" xmlns="http://www.w3.org/2000/svg">
<path d="M56.2686 67.8402H47.531C47.3109 67.8402 47.0966 67.9166 46.9197 68.0581C46.7428 68.1997 46.6127 68.3989 46.5485 68.6264L45.8264 71.1866C45.2999 70.967 44.8142 70.6471 44.3924 70.242L42.9267 68.8319C42.9056 68.8118 42.8839 68.7923 42.8615 68.7742C41.2745 67.4771 39.3864 66.6799 37.4061 66.4709C35.4258 66.262 33.4306 66.6494 31.6415 67.5903L31.0344 67.9076C30.2234 68.3301 29.3349 68.5501 28.4346 68.5515H24.1144L20.8837 66.653C20.0219 66.1188 19.0334 65.8715 18.042 65.9423C17.0507 66.013 16.1008 66.3985 15.3115 67.0506L14.9069 66.8149C14.8991 66.8104 14.8916 66.8062 14.8839 66.8021C13.429 66.0052 11.5496 66.4816 10.3674 67.8145L10.3606 67.8106C9.32616 67.2055 8.11561 67.0549 6.98102 67.3902C5.84643 67.7255 4.87524 68.5209 4.26971 69.6107C4.1347 69.8531 4.09042 70.142 4.1459 70.4184C4.20138 70.6949 4.35244 70.938 4.56822 71.0981L19.8744 82.456C19.9144 82.4857 19.9564 82.5123 20 82.5355C22.2634 83.74 24.824 84.1303 27.3073 83.6495L36.1548 81.8889C36.1765 81.8848 36.1979 81.8796 36.2193 81.8739C36.7706 81.723 37.3543 81.8031 37.8532 82.0981L41.9572 84.902L40.6415 89.5663C40.5947 89.7322 40.5845 89.9077 40.6118 90.0786C40.639 90.2495 40.703 90.4112 40.7985 90.5506C40.894 90.6899 41.0184 90.8032 41.1617 90.8812C41.305 90.9593 41.4633 90.9999 41.6238 90.9999H53.9056C54.1565 90.9999 54.3986 90.9008 54.5864 90.7211C54.7742 90.5414 54.8947 90.2936 54.9251 90.0245L57.288 69.0846C57.3056 68.9287 57.2923 68.7705 57.2492 68.6205C57.206 68.4705 57.1338 68.3321 57.0374 68.2145C56.9411 68.0969 56.8227 68.0027 56.6901 67.9383C56.5576 67.8738 56.4139 67.8404 56.2686 67.8404V67.8402ZM19.8665 68.5802L19.8908 68.595L20.5335 68.9725C20.1935 69.1205 19.8684 69.3055 19.563 69.5247L17.4615 68.3027C17.8582 68.165 18.2773 68.1188 18.6916 68.1668C19.1059 68.2148 19.5063 68.3562 19.867 68.5817L19.8665 68.5802ZM13.9456 68.7751L18.0465 71.1633C17.8768 71.439 17.7291 71.7298 17.6051 72.0327L12.3146 68.9501C12.8377 68.6129 13.4655 68.5199 13.9456 68.7766V68.7751ZM38.9251 80.2044C38.9096 80.1937 38.8937 80.1833 38.8776 80.1737C37.9278 79.5973 36.8109 79.432 35.7527 79.7113L26.9378 81.4651C24.9134 81.8568 22.8262 81.5468 20.9746 80.5794L6.68244 69.974C7.06739 69.664 7.52633 69.4795 8.00513 69.4422C8.48394 69.4048 8.96264 69.5163 9.38477 69.7633L16.6673 74.0092L17.1465 74.282C17.1465 74.319 17.1441 74.3544 17.1441 74.391C17.1441 74.6854 17.2523 74.9677 17.4449 75.1758C17.6375 75.3839 17.8987 75.5009 18.1711 75.5009C18.1865 75.5009 18.2021 75.5009 18.2177 75.4998L23.2391 75.2543C24.6875 75.1836 26.1388 75.256 27.575 75.4707C27.7086 75.4907 27.8445 75.4821 27.975 75.4453C28.1056 75.4085 28.2281 75.3443 28.3356 75.2564C28.4432 75.1684 28.5336 75.0584 28.6019 74.9327C28.6701 74.8069 28.7147 74.6679 28.7332 74.5235C28.7517 74.3792 28.7437 74.2323 28.7097 74.0912C28.6756 73.9502 28.6162 73.8178 28.5348 73.7015C28.4535 73.5853 28.3517 73.4875 28.2353 73.4138C28.119 73.3401 27.9903 73.2918 27.8568 73.2719C26.2965 73.0388 24.7198 72.9601 23.1463 73.0367L19.3776 73.2217C19.6043 72.5074 20.0316 71.8874 20.6 71.4482C21.1683 71.0089 21.8494 70.7723 22.5481 70.7715H28.4351C29.6451 70.7697 30.8392 70.474 31.9291 69.9061L32.5362 69.5889C33.9795 68.8299 35.5884 68.5154 37.1863 68.68C38.7842 68.8445 40.3092 69.4818 41.5938 70.5217L43.0272 71.9006C43.6709 72.5181 44.4176 72.9974 45.2273 73.3127L42.5789 82.7004L38.9251 80.2044ZM52.9962 88.7802H43.0106L48.2915 70.06H55.1086L52.9962 88.7802Z" fill="#F63858"/>
<path d="M10.8499 34.3267V32.3513H11.8525C12.4842 32.3517 13.115 32.4033 13.7396 32.5054L10.7805 36.8661C8.72307 39.8831 7.6691 43.5629 7.78959 47.3086C7.91008 51.0542 9.19795 54.646 11.4443 57.5014C13.152 59.6863 15.2807 61.4419 17.6815 62.6452C20.0823 63.8486 22.6974 64.4708 25.3438 64.4683C27.9903 64.4707 30.6053 63.8485 33.0061 62.6451C35.4069 61.4417 37.5356 59.6863 39.2434 57.5014C41.4897 54.646 42.7775 51.0542 42.898 47.3086C43.0185 43.5629 41.9645 39.8832 39.9071 36.8661L36.9198 32.4635C36.9198 32.4364 36.9236 32.4101 36.9236 32.3829C36.924 31.6479 36.7234 30.9291 36.3471 30.3168C36.8058 30.0241 37.1961 29.6212 37.4878 29.1394C37.7795 28.6576 37.9647 28.1098 38.0293 27.5383C38.0938 26.9667 38.0358 26.3868 37.8599 25.8434C37.684 25.2999 37.3948 24.8075 37.0146 24.4041C37.6735 23.6919 38.0469 22.7282 38.0541 21.7211C38.0613 20.714 37.7018 19.7443 37.0531 19.0211C37.4681 18.5834 37.7697 18.0358 37.9281 17.433C38.0864 16.8301 38.0959 16.193 37.9556 15.5849C37.8153 14.9769 37.5301 14.4191 37.1284 13.9672C36.7268 13.5152 36.2226 13.1848 35.666 13.0089C37.321 12.0366 38.3324 9.98107 38.3324 7.30124V7.1995C38.3324 6.90514 38.2242 6.62284 38.0316 6.41469C37.839 6.20655 37.5778 6.08962 37.3054 6.08962H34.0314C34.4733 4.91653 34.9873 3.77666 35.5698 2.67763C35.7049 2.42265 35.7759 2.13393 35.7759 1.84013C35.7758 1.54632 35.7047 1.25764 35.5695 1.00272C35.4343 0.747804 35.2398 0.535514 35.0053 0.386914C34.7708 0.238314 34.5044 0.158569 34.2325 0.155592L20.6047 0.000577383C20.3861 -0.00559525 20.1688 0.0377825 19.9667 0.127916C19.7646 0.218049 19.5822 0.352937 19.4313 0.52389C19.2039 0.789215 19.0638 1.12826 19.0328 1.48842C19.0019 1.84858 19.0818 2.20971 19.2602 2.51577L19.9031 3.61845C20.3644 4.41373 20.7796 5.23923 21.1462 6.09017H20.2613C16.641 6.09017 15.7472 8.9905 15.2669 10.5482C15.1916 10.8151 15.1014 11.0767 14.9968 11.3318C13.9293 12.0377 12.9559 12.381 12.0237 12.381H10.8499V10.0044C10.8499 9.71002 10.7417 9.42772 10.5491 9.21957C10.3565 9.01143 10.0953 8.89449 9.82289 8.89449H1.02747C0.755098 8.89449 0.493881 9.01143 0.301285 9.21957C0.108688 9.42772 0.000488281 9.71002 0.000488281 10.0044V34.3267C0.000488281 34.621 0.108688 34.9033 0.301285 35.1115C0.493881 35.3196 0.755098 35.4366 1.02747 35.4366H9.82289C10.0953 35.4366 10.3565 35.3196 10.5491 35.1115C10.7417 34.9033 10.8499 34.621 10.8499 34.3267ZM38.2506 38.1789C40.034 40.7943 40.9475 43.9841 40.8431 47.231C40.7386 50.4779 39.6223 53.5914 37.6752 56.0666C36.1587 58.0035 34.2699 59.5598 32.1402 60.6273C30.0105 61.6948 27.6911 62.2478 25.3435 62.2478C22.9959 62.2478 20.6765 61.6948 18.5468 60.6273C16.4171 59.5598 14.5283 58.0035 13.0118 56.0666C11.0646 53.5914 9.94831 50.4779 9.84389 47.231C9.73946 43.9841 10.6531 40.7943 12.4366 38.1789L15.9023 33.0714C16.7757 33.3901 17.6144 33.8109 18.4033 34.3263C15.8757 36.633 16.0229 40.2121 16.5385 41.9764C16.6216 42.2557 16.8036 42.488 17.0447 42.6227C17.2859 42.7574 17.5665 42.7834 17.8254 42.6951C18.0842 42.6067 18.3002 42.4113 18.4261 42.1514C18.5519 41.8915 18.5775 41.5883 18.4971 41.3081C18.3123 40.5567 18.2535 39.7755 18.3237 39.0017C18.3766 38.2463 18.6106 37.5187 19.0027 36.8907C19.3949 36.2627 19.9315 35.7558 20.56 35.4201C22.3808 36.0646 24.3139 36.1371 26.2907 36.1371H28.6838L28.9282 36.6138C29.8455 38.4003 30.2664 40.4349 30.1404 42.4735L30.1196 42.8133C30.1107 42.9587 30.1284 43.1046 30.1717 43.2427C30.215 43.3807 30.283 43.5082 30.3719 43.6178C30.4607 43.7275 30.5687 43.8171 30.6896 43.8817C30.8105 43.9462 30.942 43.9844 31.0766 43.994C31.0996 43.9957 31.1225 43.9964 31.1451 43.9964C31.4054 43.9961 31.656 43.889 31.846 43.6967C32.0361 43.5044 32.1515 43.2413 32.1688 42.9605L32.1897 42.6207C32.3246 40.4318 31.9378 38.242 31.0664 36.2607C31.6594 36.5048 33.457 37.5626 33.7974 41.4701C33.8214 41.7451 33.9393 42.0005 34.1281 42.1865C34.317 42.3725 34.5632 42.4757 34.8188 42.476C34.8509 42.476 34.8836 42.4744 34.9163 42.4711C35.1875 42.4435 35.4374 42.3006 35.6111 42.0738C35.7848 41.8471 35.868 41.5551 35.8425 41.262C35.6268 38.7879 34.9153 37.1502 34.1138 36.0672C34.8505 35.91 35.5204 35.4994 36.0233 34.8966L38.2506 38.1789ZM36.2081 8.30939C36.0265 9.60279 35.4 11.4073 33.3194 11.4073H32.5717C32.7587 10.3608 32.9999 9.32647 33.2942 8.30921H36.2081V8.30939ZM22.3521 2.23978C22.3896 2.26329 22.4284 2.28423 22.4683 2.30249C24.0885 3.02836 25.3909 5.29697 25.1556 6.97771C25.1306 7.13698 25.1382 7.30021 25.1777 7.456C25.2172 7.61179 25.2877 7.75638 25.3842 7.87968C25.4808 8.00299 25.6011 8.10203 25.7367 8.16989C25.8724 8.23775 26.0201 8.2728 26.1695 8.27258C26.4141 8.27224 26.6506 8.17755 26.8364 8.00555C27.0221 7.83355 27.145 7.59554 27.1828 7.33436C27.4283 5.64215 26.8186 3.74146 25.7108 2.27752L28.9569 2.31451C28.611 3.40128 28.3077 4.92146 28.5703 6.49676C28.6129 6.75274 28.7374 6.98441 28.9219 7.15132C29.1065 7.31823 29.3395 7.40979 29.5801 7.41001C29.6824 7.4099 29.7841 7.3935 29.8819 7.36136C30.1242 7.27473 30.3292 7.09601 30.4588 6.85837C30.5884 6.62074 30.6338 6.34034 30.5866 6.06927C30.3507 4.58664 30.8423 3.09328 31.1538 2.33948L33.3819 2.36483C31.8692 5.42064 30.849 8.73244 30.3648 12.1583L30.252 12.9506L25.8445 13.039C25.7362 13.0288 25.6309 12.9951 25.5348 12.94C25.4388 12.8849 25.354 12.8095 25.2855 12.7182C24.6674 8.99268 23.3891 5.43126 21.5209 2.22979L22.3521 2.23978ZM10.8499 14.6006H12.0237C13.3759 14.6006 14.7327 14.1287 16.1693 13.1578C16.748 12.7669 16.9647 12.0636 17.2158 11.2493C17.7464 9.52787 18.2753 8.30921 20.2613 8.30921H21.9969C22.3644 9.4006 22.6727 10.5184 22.9392 11.6503V12.1433C22.9392 12.1836 22.9412 12.2238 22.9453 12.2637C23.112 13.9153 24.416 15.259 25.8519 15.259H25.8708L34.7371 15.081C35.0744 15.0822 35.3975 15.2281 35.6352 15.4867C35.8729 15.7453 36.0059 16.0954 36.0048 16.4599C36.0037 16.8244 35.8686 17.1735 35.6294 17.4304C35.3901 17.6873 35.0662 17.831 34.7289 17.8298L31.1097 17.8419C30.8373 17.8419 30.5761 17.9588 30.3835 18.1669C30.1909 18.3751 30.0827 18.6574 30.0827 18.9518C30.0827 19.2461 30.1909 19.5284 30.3835 19.7366C30.5761 19.9447 30.8373 20.0616 31.1097 20.0616H34.4939C34.8935 20.0616 35.2767 20.2332 35.5593 20.5386C35.8418 20.8439 36.0006 21.2581 36.0006 21.6899C36.0006 22.1218 35.8418 22.536 35.5593 22.8413C35.2767 23.1467 34.8935 23.3182 34.4939 23.3182H31.1105C30.8381 23.3182 30.5769 23.4352 30.3843 23.6433C30.1917 23.8515 30.0835 24.1338 30.0835 24.4281C30.0835 24.7225 30.1917 25.0048 30.3843 25.2129C30.5769 25.4211 30.8381 25.538 31.1105 25.538H34.5706C34.9472 25.5425 35.3069 25.7073 35.5718 25.9967C35.8366 26.286 35.9852 26.6766 35.9852 27.0836C35.9852 27.4907 35.8366 27.8812 35.5718 28.1706C35.3069 28.46 34.9472 28.6248 34.5706 28.6292H29.5812C29.3088 28.6292 29.0476 28.7462 28.855 28.9543C28.6624 29.1625 28.5542 29.4448 28.5542 29.7391C28.5542 30.0335 28.6624 30.3158 28.855 30.5239C29.0476 30.7321 29.3088 30.849 29.5812 30.849H33.4495C33.8233 30.8535 34.1804 31.0171 34.4433 31.3043C34.7062 31.5916 34.8537 31.9793 34.8537 32.3834C34.8537 32.7874 34.7062 33.1751 34.4433 33.4624C34.1804 33.7496 33.8233 33.9132 33.4495 33.9177H26.2907C23.7763 33.9177 21.5384 33.8126 19.6129 32.5216C17.2829 30.9587 14.5949 30.1308 11.8525 30.1315H10.8499V14.6006ZM8.7959 33.2168H2.05445V11.1143H8.7959V33.2168Z" fill="#F63858"/>
<path d="M25.8527 47.4639C26.1968 47.4642 26.5267 47.6121 26.77 47.875C27.0133 48.1379 27.1501 48.4944 27.1505 48.8662C27.1505 49.1606 27.2587 49.4429 27.4513 49.651C27.6439 49.8592 27.9051 49.9761 28.1775 49.9761C28.4498 49.9761 28.7111 49.8592 28.9037 49.651C29.0963 49.4429 29.2045 49.1606 29.2045 48.8662C29.2033 48.1002 28.9777 47.3542 28.5601 46.7352C28.1425 46.1162 27.5542 45.656 26.8797 45.4206V44.9744C26.8797 44.68 26.7715 44.3977 26.5789 44.1896C26.3863 43.9814 26.1251 43.8645 25.8527 43.8645C25.5804 43.8645 25.3191 43.9814 25.1265 44.1896C24.9339 44.3977 24.8257 44.68 24.8257 44.9744V45.4206C24.0653 45.6849 23.4172 46.2341 22.9983 46.9692C22.5795 47.7043 22.4174 48.5769 22.5413 49.4298C22.6652 50.2826 23.0669 51.0596 23.6741 51.6206C24.2813 52.1816 25.0539 52.4897 25.8527 52.4895C26.0231 52.4882 26.192 52.5233 26.3498 52.5926C26.5076 52.662 26.6513 52.7642 26.7725 52.8935C26.8938 53.0229 26.9903 53.1767 27.0565 53.3464C27.1227 53.516 27.1574 53.6981 27.1585 53.8822C27.1597 54.0663 27.1272 54.2488 27.0631 54.4194C26.9989 54.59 26.9043 54.7452 26.7846 54.8762C26.665 55.0073 26.5226 55.1116 26.3656 55.1831C26.2087 55.2547 26.0402 55.2922 25.8698 55.2934C25.8642 55.2934 25.8589 55.2934 25.8527 55.2934C25.8466 55.2934 25.8419 55.2934 25.8356 55.2934C25.4945 55.2884 25.169 55.1386 24.9293 54.8763C24.6895 54.6141 24.5549 54.2604 24.5545 53.8918C24.5545 53.5974 24.4463 53.3151 24.2537 53.107C24.0611 52.8988 23.7998 52.7819 23.5275 52.7819C23.2551 52.7819 22.9939 52.8988 22.8013 53.107C22.6087 53.3151 22.5005 53.5974 22.5005 53.8918C22.5015 54.658 22.727 55.4042 23.1446 56.0234C23.5622 56.6426 24.1504 57.103 24.8251 57.3386V57.8989C24.8251 58.1932 24.9333 58.4755 25.1259 58.6837C25.3185 58.8918 25.5797 59.0088 25.852 59.0088C26.1244 59.0088 26.3856 58.8918 26.5782 58.6837C26.7708 58.4755 26.879 58.1932 26.879 57.8989V57.3386C27.6395 57.0743 28.2876 56.5251 28.7064 55.79C29.1253 55.0548 29.2874 54.1822 29.1635 53.3293C29.0396 52.4765 28.6378 51.6995 28.0307 51.1385C27.4235 50.5775 26.6509 50.2694 25.852 50.2697C25.5105 50.2654 25.1842 50.1158 24.944 49.8533C24.7039 49.5907 24.5692 49.2364 24.5692 48.8672C24.5692 48.4981 24.7039 48.1438 24.944 47.8812C25.1842 47.6187 25.5105 47.469 25.852 47.4648L25.8527 47.4639Z" fill="#F63858"/>
</svg>
