<svg width="38" height="50" viewBox="0 0 38 50" fill="none" xmlns="http://www.w3.org/2000/svg">
<path d="M36.799 9.11639H29.5186V1.83594H31.1384V7.49648H36.799V9.11639Z" fill="#0B1035" stroke="black" stroke-width="0.3"/>
<path d="M37.6327 49.5883H0.367188V0.998291H30.6713L37.6327 7.9597V49.5883ZM2.0427 47.9128H35.9572V8.65351L29.9776 2.67381H2.0427V47.9128Z" fill="#0B1035" stroke="black" stroke-width="0.3"/>
<path d="M16.5746 7.52679H5.25098V5.85132H16.5746V7.52679Z" fill="#0B1035" stroke="black" stroke-width="0.3"/>
<path d="M32.7847 38.2644H5.22461V12.3225H32.7847V38.2644ZM6.90008 36.5889H31.1092V13.998H6.90008V36.5889Z" fill="#0B1035" stroke="black" stroke-width="0.3"/>
<path d="M32.7544 42.3372H19.8125V40.6616H32.7544V42.3372Z" fill="#0B1035" stroke="black" stroke-width="0.3"/>
<path d="M27.9013 44.7354H19.8125V43.0598H27.9013V44.7354Z" fill="#0B1035" stroke="black" stroke-width="0.3"/>
<path d="M31.9442 18.8506H6.05957V17.175H31.9442V18.8506Z" fill="#0B1035" stroke="black" stroke-width="0.3"/>
<path d="M13.3689 37.4268H11.6934V13.1604H13.3689V37.4268Z" fill="#0B1035" stroke="black" stroke-width="0.3"/>
<path d="M19.8396 37.4268H18.1641V18.0127H19.8396V37.4268Z" fill="#0B1035" stroke="black" stroke-width="0.3"/>
<path d="M26.3112 37.4268H24.6357V18.0127H26.3112V37.4268Z" fill="#0B1035" stroke="black" stroke-width="0.3"/>
<path d="M31.9463 23.7044H12.5322V22.0288H31.9463V23.7044Z" fill="#0B1035" stroke="black" stroke-width="0.3"/>
<path d="M31.9463 28.5574H12.5322V26.8818H31.9463V28.5574Z" fill="#0B1035" stroke="black" stroke-width="0.3"/>
<path d="M31.9463 33.4114H12.5322V31.7358H31.9463V33.4114Z" fill="#0B1035" stroke="black" stroke-width="0.3"/>
</svg>
