<svg width="85" height="95" viewBox="0 0 85 95" fill="none" xmlns="http://www.w3.org/2000/svg">
<path d="M30.8745 86.45H19.6475C19.2753 86.45 18.9184 86.6097 18.6552 86.8942C18.392 87.1786 18.2441 87.5644 18.2441 87.9666C18.2441 88.3689 18.392 88.7546 18.6552 89.0391C18.9184 89.3235 19.2753 89.4833 19.6475 89.4833H30.8745C31.2467 89.4833 31.6037 89.3235 31.8668 89.0391C32.13 88.7546 32.2779 88.3689 32.2779 87.9666C32.2779 87.5644 32.13 87.1786 31.8668 86.8942C31.6037 86.6097 31.2467 86.45 30.8745 86.45Z" fill="#1C2777"/>
<path d="M79.2906 28.8167H50.5214V5.30833C50.52 3.90095 50.002 2.55166 49.0812 1.55649C48.1604 0.561325 46.9119 0.00155559 45.6096 0H4.91181C3.60956 0.00155559 2.36106 0.561325 1.44022 1.55649C0.519394 2.55166 0.00143939 3.90095 0 5.30833V88.725C0.00143939 90.1324 0.519394 91.4817 1.44022 92.4768C2.36106 93.472 3.60956 94.0318 4.91181 94.0333H45.6096C46.9119 94.0318 48.1604 93.472 49.0812 92.4768C50.002 91.4817 50.52 90.1324 50.5214 88.725V66.7333H79.2906C80.5928 66.7318 81.8414 66.172 82.7622 65.1768C83.683 64.1817 84.201 62.8324 84.2024 61.425V34.125C84.201 32.7176 83.683 31.3683 82.7622 30.3732C81.8414 29.378 80.5928 28.8182 79.2906 28.8167ZM31.8829 3.03333L31.1812 6.06667H19.3402L18.6386 3.03333H31.8829ZM47.7147 88.725C47.7142 89.3282 47.4923 89.9066 47.0976 90.3331C46.703 90.7597 46.1678 90.9995 45.6096 91H4.91181C4.35365 90.9995 3.81849 90.7597 3.42382 90.3331C3.02914 89.9066 2.80721 89.3282 2.80675 88.725V5.30833C2.80721 4.70512 3.02914 4.12676 3.42382 3.70022C3.81849 3.27368 4.35365 3.03384 4.91181 3.03333H15.7441L16.8826 7.95112C16.9585 8.27924 17.1337 8.57053 17.3803 8.77869C17.627 8.98685 17.9309 9.09995 18.2439 9.1H32.2776C32.5905 9.09995 32.8945 8.98685 33.1411 8.77869C33.3878 8.57053 33.563 8.27924 33.6389 7.95112L34.7773 3.03333H45.6096C46.1678 3.03384 46.703 3.27368 47.0976 3.70022C47.4923 4.12676 47.7142 4.70512 47.7147 5.30833V88.725ZM50.5214 51.5667H54.7316V57.6333H50.5214V51.5667ZM81.3957 61.425C81.3952 62.0282 81.1733 62.6066 80.7786 63.0331C80.3839 63.4597 79.8488 63.6995 79.2906 63.7H50.5214V60.6667H56.1349C56.5071 60.6667 56.8641 60.5069 57.1273 60.2224C57.3905 59.938 57.5383 59.5522 57.5383 59.15V50.05C57.5383 49.6478 57.3905 49.262 57.1273 48.9776C56.8641 48.6931 56.5071 48.5333 56.1349 48.5333H50.5214V43.9833H81.3957V61.425ZM81.3957 40.95H50.5214V37.9167H81.3957V40.95ZM81.3957 34.8833H50.5214V31.85H79.2906C79.8488 31.8505 80.3839 32.0903 80.7786 32.5169C81.1733 32.9434 81.3952 33.5218 81.3957 34.125V34.8833Z" fill="#1C2777"/>
<path d="M77.1851 48.5332H64.5547C64.1825 48.5332 63.8256 48.693 63.5624 48.9774C63.2992 49.2619 63.1514 49.6476 63.1514 50.0499C63.1514 50.4521 63.2992 50.8379 63.5624 51.1223C63.8256 51.4067 64.1825 51.5665 64.5547 51.5665H77.1851C77.5573 51.5665 77.9143 51.4067 78.1774 51.1223C78.4406 50.8379 78.5885 50.4521 78.5885 50.0499C78.5885 49.6476 78.4406 49.2619 78.1774 48.9774C77.9143 48.693 77.5573 48.5332 77.1851 48.5332Z" fill="#1C2777"/>
<path d="M77.1851 53.0833H64.5547C64.1825 53.0833 63.8256 53.243 63.5624 53.5275C63.2992 53.8119 63.1514 54.1977 63.1514 54.5999C63.1514 55.0022 63.2992 55.3879 63.5624 55.6724C63.8256 55.9568 64.1825 56.1166 64.5547 56.1166H77.1851C77.5573 56.1166 77.9143 55.9568 78.1774 55.6724C78.4406 55.3879 78.5885 55.0022 78.5885 54.5999C78.5885 54.1977 78.4406 53.8119 78.1774 53.5275C77.9143 53.243 77.5573 53.0833 77.1851 53.0833Z" fill="#1C2777"/>
<path d="M77.1858 57.6333H71.5723C71.2001 57.6333 70.8432 57.7931 70.58 58.0775C70.3168 58.362 70.1689 58.7477 70.1689 59.15C70.1689 59.5522 70.3168 59.938 70.58 60.2224C70.8432 60.5068 71.2001 60.6666 71.5723 60.6666H77.1858C77.558 60.6666 77.915 60.5068 78.1781 60.2224C78.4413 59.938 78.5892 59.5522 78.5892 59.15C78.5892 58.7477 78.4413 58.362 78.1781 58.0775C77.915 57.7931 77.558 57.6333 77.1858 57.6333Z" fill="#1C2777"/>
<path d="M25.2604 28.8167C21.9297 28.8167 18.6737 29.8841 15.9043 31.8839C13.1349 33.8837 10.9765 36.7262 9.70183 40.0518C8.42722 43.3774 8.09372 47.0368 8.74351 50.5673C9.39331 54.0977 10.9972 57.3407 13.3524 59.886C15.7076 62.4313 18.7083 64.1647 21.975 64.8669C25.2417 65.5692 28.6278 65.2088 31.705 63.8313C34.7822 62.4537 37.4123 60.121 39.2628 57.128C41.1132 54.1351 42.1009 50.6163 42.1009 47.0167C42.0959 42.1914 40.32 37.5653 37.1629 34.1533C34.0058 30.7413 29.7252 28.8221 25.2604 28.8167ZM25.2604 62.1833C22.4848 62.1833 19.7715 61.2938 17.4637 59.6273C15.1559 57.9607 13.3571 55.592 12.2949 52.8207C11.2328 50.0493 10.9548 46.9998 11.4963 44.0578C12.0378 41.1157 13.3744 38.4133 15.3371 36.2922C17.2997 34.1711 19.8003 32.7266 22.5226 32.1414C25.2448 31.5562 28.0666 31.8565 30.6309 33.0045C33.1952 34.1524 35.387 36.0964 36.929 38.5905C38.4711 41.0846 39.2941 44.017 39.2941 47.0167C39.2899 51.0377 37.81 54.8927 35.1791 57.7361C32.5482 60.5794 28.9811 62.1787 25.2604 62.1833Z" fill="#1C2777"/>
<path d="M32.6889 41.3942L23.726 51.0808L19.0862 47.32C18.7885 47.0786 18.4142 46.975 18.0457 47.0319C17.6773 47.0888 17.3448 47.3015 17.1215 47.6233C16.8982 47.9451 16.8023 48.3496 16.8549 48.7478C16.9076 49.146 17.1044 49.5053 17.4022 49.7467L23.0157 54.2967C23.2859 54.5157 23.6202 54.6221 23.9572 54.5962C24.2942 54.5703 24.6112 54.414 24.8501 54.1558L34.6737 43.5391C34.9369 43.2547 35.0847 42.8689 35.0847 42.4667C35.0847 42.0644 34.9369 41.6786 34.6737 41.3942C34.4105 41.1097 34.0535 40.95 33.6813 40.95C33.3091 40.95 32.9521 41.1097 32.6889 41.3942Z" fill="#1C2777"/>
</svg>
