<svg width="57" height="91" viewBox="0 0 57 91" fill="none" xmlns="http://www.w3.org/2000/svg">
<path d="M28.2184 67.5162C36.4691 67.5162 43.1576 60.2877 43.1576 51.371C43.1576 42.4543 36.4691 35.2258 28.2184 35.2258C19.9678 35.2258 13.2793 42.4543 13.2793 51.371C13.2793 60.2877 19.9678 67.5162 28.2184 67.5162Z" fill="#1C2777" fill-opacity="0.47"/>
<path d="M55.9794 22.4535L52.6643 14.6275V7.33871C52.6643 3.29215 49.6181 0 45.8738 0H10.5631C6.81882 0 3.77259 3.29215 3.77259 7.33871V14.6319L0.415363 22.5621C-0.258256 24.5656 -0.107507 26.7892 0.830943 28.6635C1.51135 30.0241 2.53672 31.0486 3.77259 31.6577V83.6613C3.77259 87.7079 6.81882 91 10.5631 91H45.8738C49.6181 91 52.6643 87.7079 52.6643 83.6613V31.6577C53.9002 31.0486 54.9256 30.0241 55.606 28.6635C56.5431 26.7892 56.6952 24.5656 55.9794 22.4535ZM10.5631 2.93548H45.8738C48.1201 2.93548 49.9481 4.91106 49.9481 7.33871V10.2742H6.4888V7.33871C6.4888 4.91106 8.31681 2.93548 10.5631 2.93548ZM49.9481 76.3226H6.4888V32.2903C8.70794 32.2903 10.6813 31.1337 11.9212 29.3504C13.1612 31.1337 15.1345 32.2903 17.3536 32.2903C19.5728 32.2903 21.5461 31.1337 22.786 29.3504C24.026 31.1337 25.9993 32.2903 28.2185 32.2903C30.4376 32.2903 32.4109 31.1337 33.6509 29.3504C34.8908 31.1337 36.8641 32.2903 39.0833 32.2903C41.3024 32.2903 43.2757 31.1337 44.5157 29.3504C45.7556 31.1337 47.729 32.2903 49.9481 32.2903V76.3226ZM22.6271 13.2097L21.4361 24.7902L21.4347 24.9516H21.4279C21.4279 27.3793 19.5999 29.3548 17.3536 29.3548C15.1413 29.3548 13.3459 27.438 13.2902 25.0617L15.7266 13.2097H22.6271ZM31.0773 13.2097L32.2887 24.9942C32.267 27.4027 30.4512 29.3548 28.2185 29.3548C25.9857 29.3548 24.1699 27.4027 24.1482 24.9942L25.3596 13.2097H31.0773ZM43.1467 25.0617C43.091 27.438 41.2956 29.3548 39.0833 29.3548C36.837 29.3548 35.009 27.3793 35.009 24.9516L33.8098 13.2097H40.7103L43.1467 25.0617ZM3.21985 27.2662C2.6508 26.1302 2.55981 24.7814 2.9265 23.6747L7.3607 13.2097H12.9439L10.5943 24.6331L10.5889 24.9516H10.5631C10.5631 27.3793 8.7351 29.3548 6.4888 29.3548C6.171 29.3548 5.85593 29.3167 5.55443 29.2389C4.55894 28.9864 3.73049 28.2849 3.21985 27.2662ZM45.8738 88.0645H10.5631C8.31681 88.0645 6.4888 86.0889 6.4888 83.6613V79.2581H49.9481V83.6613C49.9481 86.0889 48.1201 88.0645 45.8738 88.0645ZM53.2171 27.2662C52.7064 28.2849 51.878 28.9864 50.8811 29.2389C50.581 29.3167 50.2659 29.3548 49.9481 29.3548C47.7018 29.3548 45.8738 27.3793 45.8738 24.9516L43.489 13.2097H49.0776L53.4697 23.5661C53.8785 24.7814 53.7861 26.1302 53.2171 27.2662Z" fill="#F63858"/>
<path d="M45.8737 70.4517H10.563V73.3871H45.8737V70.4517Z" fill="#F63858"/>
<path d="M36.3676 82.1934H20.0703V85.1288H36.3676V82.1934Z" fill="#F63858"/>
<path d="M28.2188 55.7741C27.4692 55.7741 26.8607 55.1165 26.8607 54.3064H24.1445C24.1445 56.2174 25.284 57.8319 26.8607 58.4395V61.6451H29.5769V58.4395C31.1537 57.8319 32.2932 56.2174 32.2932 54.3064C32.2932 51.8787 30.4651 49.9031 28.2188 49.9031C27.4692 49.9031 26.8607 49.2456 26.8607 48.4354C26.8607 47.6252 27.4692 46.9676 28.2188 46.9676C28.9685 46.9676 29.5769 47.6252 29.5769 48.4354H32.2932C32.2932 46.5244 31.1537 44.9099 29.5769 44.3022V41.0967H26.8607V44.3022C25.284 44.9099 24.1445 46.5244 24.1445 48.4354C24.1445 50.863 25.9725 52.8386 28.2188 52.8386C28.9685 52.8386 29.5769 53.4962 29.5769 54.3064C29.5769 55.1165 28.9685 55.7741 28.2188 55.7741Z" fill="#F63858"/>
<path d="M37.725 49.9033H35.0088V52.8388H37.725V49.9033Z" fill="#F63858"/>
<path d="M21.4281 49.9033H18.7119V52.8388H21.4281V49.9033Z" fill="#F63858"/>
</svg>
