<svg width="48" height="48" viewBox="0 0 48 48" fill="none" xmlns="http://www.w3.org/2000/svg">
<path d="M44.6671 41.2516C50.207 33.8165 48.6866 23.2992 41.2516 17.7593C40.2727 17.0304 39.2106 16.4056 38.0964 15.9058C36.2845 5.46132 26.3503 -1.52595 15.9058 0.285948C5.46132 2.09785 -1.52595 12.0321 0.285948 22.4765C0.827436 25.5797 2.11868 28.5058 4.05554 30.9946L0.723305 34.306C0.0464453 34.9932 -0.151405 36.0241 0.223471 36.9197C0.587934 37.8152 1.46264 38.3984 2.43107 38.4088H16.0828C18.8527 44.261 24.7466 47.9889 31.2132 47.9994H45.6043C46.5728 47.9994 47.4475 47.4058 47.8119 46.5103C48.1868 45.6147 47.989 44.5838 47.3121 43.8965L44.6671 41.2516ZM14.4167 31.2028C14.4167 32.0046 14.4792 32.8065 14.6041 33.5979H8.2L9.04347 32.7856C9.98067 31.8484 9.99108 30.3385 9.05389 29.3909L9.04347 29.3805C6.32562 26.6939 4.80529 23.0284 4.82612 19.2068C4.82612 11.2615 11.2719 4.8157 19.2172 4.8157C25.3194 4.77405 30.7759 8.63736 32.7648 14.4063H31.2028C21.9351 14.4167 14.4167 21.9351 14.4167 31.2028ZM39.7 43.1989L39.825 43.3238H31.2132C24.5904 43.3134 19.2276 37.9298 19.238 31.307C19.2484 24.6841 24.6321 19.3213 31.2549 19.3317C37.8777 19.3422 43.2405 24.7258 43.2301 31.3486C43.2197 34.5246 41.9597 37.5757 39.7104 39.8146C39.2627 40.2623 39.0023 40.8559 38.9919 41.4911C38.9815 42.1367 39.2418 42.7511 39.7 43.1989Z" fill="#0B1035"/>
</svg>
