<svg width="30" height="31" viewBox="0 0 30 31" fill="none" xmlns="http://www.w3.org/2000/svg">
<path d="M14.8044 10.3952C14.8045 9.30961 15.1706 8.25714 15.8411 7.41476C16.5116 6.57237 17.4457 5.99144 18.4862 5.76962C19.5268 5.54781 20.6104 5.69865 21.5549 6.19677C22.4994 6.69489 23.2471 7.50993 23.6725 8.50485L27.7586 8.5049L24.0271 12.3159C23.7841 16.149 22.1218 19.7439 19.3778 22.3708C16.6338 24.9977 13.0137 26.4596 9.25262 26.4597C5.55141 26.4597 4.62611 25.0422 4.62611 25.0422C4.62611 25.0422 8.32732 23.6247 10.1779 20.7898C10.1779 20.7898 2.77551 17.0098 4.62611 6.61492C4.62611 6.61492 9.25262 11.3399 14.8028 12.2849L14.8044 10.3952Z" stroke="#0B1035" stroke-opacity="0.75" stroke-width="2" stroke-linecap="round" stroke-linejoin="round"/>
</svg>
